<svg xmlns="http://www.w3.org/2000/svg" xmlns:xlink="http://www.w3.org/1999/xlink" width="600" zoomAndPan="magnify" viewBox="0 0 450 374.999991" height="500" preserveAspectRatio="xMidYMid meet" version="1.0"><defs><g/></defs><g fill="#e40606" fill-opacity="1"><g transform="translate(59.933512, 116.423423)"><g><path d="M 30.015625 0 L 16.859375 -42.875 L 16.515625 -42.875 C 16.992188 -34.144531 17.234375 -28.328125 17.234375 -25.421875 L 17.234375 0 L 6.875 0 L 6.875 -54.640625 L 22.65625 -54.640625 L 35.578125 -12.859375 L 35.8125 -12.859375 L 49.53125 -54.640625 L 65.296875 -54.640625 L 65.296875 0 L 54.5 0 L 54.5 -25.859375 C 54.5 -27.085938 54.515625 -28.5 54.546875 -30.09375 C 54.585938 -31.6875 54.757812 -35.921875 55.0625 -42.796875 L 54.71875 -42.796875 L 40.625 0 Z M 30.015625 0 "/></g></g></g><g fill="#df901a" fill-opacity="1"><g transform="translate(132.08624, 116.423423)"><g><path d="M 12.78125 0 L 6.578125 0 L 6.578125 -40.96875 L 12.78125 -40.96875 Z M 6.0625 -52.0625 C 6.0625 -53.488281 6.40625 -54.53125 7.09375 -55.1875 C 7.789062 -55.84375 8.664062 -56.171875 9.71875 -56.171875 C 10.71875 -56.171875 11.578125 -55.832031 12.296875 -55.15625 C 13.015625 -54.488281 13.375 -53.457031 13.375 -52.0625 C 13.375 -50.664062 13.015625 -49.625 12.296875 -48.9375 C 11.578125 -48.257812 10.71875 -47.921875 9.71875 -47.921875 C 8.664062 -47.921875 7.789062 -48.257812 7.09375 -48.9375 C 6.40625 -49.625 6.0625 -50.664062 6.0625 -52.0625 Z M 6.0625 -52.0625 "/></g></g></g><g fill="#df901a" fill-opacity="1"><g transform="translate(151.445183, 116.423423)"><g><path d="M 40.109375 -40.96875 L 40.109375 -37.046875 L 32.515625 -36.140625 C 33.210938 -35.265625 33.832031 -34.125 34.375 -32.71875 C 34.925781 -31.3125 35.203125 -29.722656 35.203125 -27.953125 C 35.203125 -23.941406 33.832031 -20.738281 31.09375 -18.34375 C 28.351562 -15.957031 24.59375 -14.765625 19.8125 -14.765625 C 18.59375 -14.765625 17.445312 -14.863281 16.375 -15.0625 C 13.726562 -13.664062 12.40625 -11.910156 12.40625 -9.796875 C 12.40625 -8.671875 12.863281 -7.835938 13.78125 -7.296875 C 14.707031 -6.765625 16.289062 -6.5 18.53125 -6.5 L 25.796875 -6.5 C 30.222656 -6.5 33.625 -5.5625 36 -3.6875 C 38.382812 -1.820312 39.578125 0.890625 39.578125 4.453125 C 39.578125 8.984375 37.757812 12.4375 34.125 14.8125 C 30.488281 17.195312 25.179688 18.390625 18.203125 18.390625 C 12.847656 18.390625 8.71875 17.390625 5.8125 15.390625 C 2.90625 13.398438 1.453125 10.585938 1.453125 6.953125 C 1.453125 4.460938 2.25 2.304688 3.84375 0.484375 C 5.4375 -1.335938 7.679688 -2.570312 10.578125 -3.21875 C 9.523438 -3.6875 8.644531 -4.421875 7.9375 -5.421875 C 7.226562 -6.421875 6.875 -7.578125 6.875 -8.890625 C 6.875 -10.390625 7.269531 -11.695312 8.0625 -12.8125 C 8.863281 -13.9375 10.125 -15.023438 11.84375 -16.078125 C 9.726562 -16.941406 8.003906 -18.421875 6.671875 -20.515625 C 5.335938 -22.609375 4.671875 -25.003906 4.671875 -27.703125 C 4.671875 -32.179688 6.015625 -35.632812 8.703125 -38.0625 C 11.398438 -40.5 15.210938 -41.71875 20.140625 -41.71875 C 22.285156 -41.71875 24.21875 -41.46875 25.9375 -40.96875 Z M 7.4375 6.875 C 7.4375 9.09375 8.367188 10.773438 10.234375 11.921875 C 12.109375 13.066406 14.789062 13.640625 18.28125 13.640625 C 23.488281 13.640625 27.34375 12.859375 29.84375 11.296875 C 32.34375 9.742188 33.59375 7.632812 33.59375 4.96875 C 33.59375 2.75 32.90625 1.207031 31.53125 0.34375 C 30.164062 -0.507812 27.59375 -0.9375 23.8125 -0.9375 L 16.375 -0.9375 C 13.550781 -0.9375 11.351562 -0.265625 9.78125 1.078125 C 8.21875 2.429688 7.4375 4.363281 7.4375 6.875 Z M 10.796875 -27.84375 C 10.796875 -24.976562 11.601562 -22.8125 13.21875 -21.34375 C 14.84375 -19.875 17.101562 -19.140625 20 -19.140625 C 26.050781 -19.140625 29.078125 -22.078125 29.078125 -27.953125 C 29.078125 -34.109375 26.015625 -37.1875 19.890625 -37.1875 C 16.972656 -37.1875 14.726562 -36.398438 13.15625 -34.828125 C 11.582031 -33.265625 10.796875 -30.9375 10.796875 -27.84375 Z M 10.796875 -27.84375 "/></g></g></g><g fill="#df901a" fill-opacity="1"><g transform="translate(193.377103, 116.423423)"><g><path d="M 25.265625 -41.71875 C 27.085938 -41.71875 28.71875 -41.566406 30.15625 -41.265625 L 29.296875 -35.5 C 27.609375 -35.875 26.113281 -36.0625 24.8125 -36.0625 C 21.5 -36.0625 18.664062 -34.71875 16.3125 -32.03125 C 13.957031 -29.34375 12.78125 -25.992188 12.78125 -21.984375 L 12.78125 0 L 6.578125 0 L 6.578125 -40.96875 L 11.703125 -40.96875 L 12.40625 -33.375 L 12.703125 -33.375 C 14.222656 -36.039062 16.054688 -38.097656 18.203125 -39.546875 C 20.347656 -40.992188 22.703125 -41.71875 25.265625 -41.71875 Z M 25.265625 -41.71875 "/></g></g></g><g fill="#df901a" fill-opacity="1"><g transform="translate(224.620495, 116.423423)"><g><path d="M 31.765625 0 L 30.53125 -5.828125 L 30.234375 -5.828125 C 28.191406 -3.265625 26.15625 -1.523438 24.125 -0.609375 C 22.09375 0.296875 19.554688 0.75 16.515625 0.75 C 12.453125 0.75 9.269531 -0.296875 6.96875 -2.390625 C 4.664062 -4.484375 3.515625 -7.460938 3.515625 -11.328125 C 3.515625 -19.597656 10.128906 -23.929688 23.359375 -24.328125 L 30.3125 -24.5625 L 30.3125 -27.09375 C 30.3125 -30.3125 29.617188 -32.6875 28.234375 -34.21875 C 26.847656 -35.75 24.640625 -36.515625 21.609375 -36.515625 C 18.191406 -36.515625 14.328125 -35.46875 10.015625 -33.375 L 8.109375 -38.125 C 10.128906 -39.21875 12.34375 -40.078125 14.75 -40.703125 C 17.15625 -41.328125 19.566406 -41.640625 21.984375 -41.640625 C 26.859375 -41.640625 30.472656 -40.554688 32.828125 -38.390625 C 35.191406 -36.222656 36.375 -32.742188 36.375 -27.953125 L 36.375 0 Z M 17.75 -4.375 C 21.613281 -4.375 24.644531 -5.429688 26.84375 -7.546875 C 29.050781 -9.671875 30.15625 -12.640625 30.15625 -16.453125 L 30.15625 -20.140625 L 23.953125 -19.890625 C 19.023438 -19.710938 15.46875 -18.941406 13.28125 -17.578125 C 11.101562 -16.222656 10.015625 -14.113281 10.015625 -11.25 C 10.015625 -9.007812 10.691406 -7.300781 12.046875 -6.125 C 13.410156 -4.957031 15.3125 -4.375 17.75 -4.375 Z M 17.75 -4.375 "/></g></g></g><g fill="#df901a" fill-opacity="1"><g transform="translate(267.187747, 116.423423)"><g><path d="M 19.8125 -4.375 C 20.90625 -4.375 21.960938 -4.453125 22.984375 -4.609375 C 24.003906 -4.773438 24.816406 -4.945312 25.421875 -5.125 L 25.421875 -0.375 C 24.742188 -0.0507812 23.75 0.210938 22.4375 0.421875 C 21.132812 0.640625 19.957031 0.75 18.90625 0.75 C 10.988281 0.75 7.03125 -3.425781 7.03125 -11.78125 L 7.03125 -36.140625 L 1.15625 -36.140625 L 1.15625 -39.140625 L 7.03125 -41.71875 L 9.640625 -50.453125 L 13.234375 -50.453125 L 13.234375 -40.96875 L 25.109375 -40.96875 L 25.109375 -36.140625 L 13.234375 -36.140625 L 13.234375 -12.03125 C 13.234375 -9.5625 13.816406 -7.664062 14.984375 -6.34375 C 16.160156 -5.03125 17.769531 -4.375 19.8125 -4.375 Z M 19.8125 -4.375 "/></g></g></g><g fill="#df901a" fill-opacity="1"><g transform="translate(294.208048, 116.423423)"><g><path d="M 12.78125 0 L 6.578125 0 L 6.578125 -40.96875 L 12.78125 -40.96875 Z M 6.0625 -52.0625 C 6.0625 -53.488281 6.40625 -54.53125 7.09375 -55.1875 C 7.789062 -55.84375 8.664062 -56.171875 9.71875 -56.171875 C 10.71875 -56.171875 11.578125 -55.832031 12.296875 -55.15625 C 13.015625 -54.488281 13.375 -53.457031 13.375 -52.0625 C 13.375 -50.664062 13.015625 -49.625 12.296875 -48.9375 C 11.578125 -48.257812 10.71875 -47.921875 9.71875 -47.921875 C 8.664062 -47.921875 7.789062 -48.257812 7.09375 -48.9375 C 6.40625 -49.625 6.0625 -50.664062 6.0625 -52.0625 Z M 6.0625 -52.0625 "/></g></g></g><g fill="#df901a" fill-opacity="1"><g transform="translate(313.566991, 116.423423)"><g><path d="M 41.9375 -20.515625 C 41.9375 -13.835938 40.253906 -8.625 36.890625 -4.875 C 33.523438 -1.125 28.878906 0.75 22.953125 0.75 C 19.285156 0.75 16.03125 -0.109375 13.1875 -1.828125 C 10.351562 -3.546875 8.160156 -6.007812 6.609375 -9.21875 C 5.066406 -12.4375 4.296875 -16.203125 4.296875 -20.515625 C 4.296875 -27.191406 5.960938 -32.394531 9.296875 -36.125 C 12.640625 -39.851562 17.273438 -41.71875 23.203125 -41.71875 C 28.941406 -41.71875 33.5 -39.8125 36.875 -36 C 40.25 -32.1875 41.9375 -27.023438 41.9375 -20.515625 Z M 10.734375 -20.515625 C 10.734375 -15.285156 11.773438 -11.300781 13.859375 -8.5625 C 15.953125 -5.820312 19.03125 -4.453125 23.09375 -4.453125 C 27.15625 -4.453125 30.238281 -5.816406 32.34375 -8.546875 C 34.445312 -11.273438 35.5 -15.265625 35.5 -20.515625 C 35.5 -25.722656 34.445312 -29.675781 32.34375 -32.375 C 30.238281 -35.082031 27.132812 -36.4375 23.03125 -36.4375 C 18.96875 -36.4375 15.898438 -35.101562 13.828125 -32.4375 C 11.765625 -29.769531 10.734375 -25.796875 10.734375 -20.515625 Z M 10.734375 -20.515625 "/></g></g></g><g fill="#df901a" fill-opacity="1"><g transform="translate(359.796746, 116.423423)"><g><path d="M 34.609375 0 L 34.609375 -26.5 C 34.609375 -29.84375 33.847656 -32.332031 32.328125 -33.96875 C 30.804688 -35.613281 28.425781 -36.4375 25.1875 -36.4375 C 20.90625 -36.4375 17.765625 -35.273438 15.765625 -32.953125 C 13.773438 -30.640625 12.78125 -26.816406 12.78125 -21.484375 L 12.78125 0 L 6.578125 0 L 6.578125 -40.96875 L 11.625 -40.96875 L 12.640625 -35.359375 L 12.9375 -35.359375 C 14.207031 -37.378906 15.988281 -38.941406 18.28125 -40.046875 C 20.570312 -41.160156 23.125 -41.71875 25.9375 -41.71875 C 30.875 -41.71875 34.585938 -40.523438 37.078125 -38.140625 C 39.566406 -35.765625 40.8125 -31.957031 40.8125 -26.71875 L 40.8125 0 Z M 34.609375 0 "/></g></g></g><g fill="#6d38d1" fill-opacity="1"><g transform="translate(59.933512, 205.60587)"><g><path d="M 52.25 -27.859375 C 52.25 -18.859375 49.6875 -11.960938 44.5625 -7.171875 C 39.4375 -2.390625 32.035156 0 22.359375 0 L 6.875 0 L 6.875 -54.671875 L 24.046875 -54.671875 C 32.972656 -54.671875 39.90625 -52.316406 44.84375 -47.609375 C 49.78125 -42.898438 52.25 -36.316406 52.25 -27.859375 Z M 40.203125 -27.5625 C 40.203125 -39.300781 35.015625 -45.171875 24.640625 -45.171875 L 18.46875 -45.171875 L 18.46875 -9.578125 L 23.453125 -9.578125 C 34.617188 -9.578125 40.203125 -15.570312 40.203125 -27.5625 Z M 40.203125 -27.5625 "/></g></g></g><g fill="#df901a" fill-opacity="1"><g transform="translate(116.619445, 205.60587)"><g><path d="M 31.796875 0 L 30.5625 -5.828125 L 30.25 -5.828125 C 28.207031 -3.265625 26.171875 -1.523438 24.140625 -0.609375 C 22.109375 0.296875 19.570312 0.75 16.53125 0.75 C 12.46875 0.75 9.28125 -0.296875 6.96875 -2.390625 C 4.664062 -4.484375 3.515625 -7.460938 3.515625 -11.328125 C 3.515625 -19.609375 10.132812 -23.945312 23.375 -24.34375 L 30.328125 -24.578125 L 30.328125 -27.109375 C 30.328125 -30.328125 29.632812 -32.703125 28.25 -34.234375 C 26.863281 -35.773438 24.648438 -36.546875 21.609375 -36.546875 C 18.203125 -36.546875 14.335938 -35.492188 10.015625 -33.390625 L 8.109375 -38.140625 C 10.128906 -39.242188 12.34375 -40.101562 14.75 -40.71875 C 17.15625 -41.34375 19.566406 -41.65625 21.984375 -41.65625 C 26.878906 -41.65625 30.503906 -40.570312 32.859375 -38.40625 C 35.210938 -36.238281 36.390625 -32.757812 36.390625 -27.96875 L 36.390625 0 Z M 17.765625 -4.375 C 21.628906 -4.375 24.664062 -5.429688 26.875 -7.546875 C 29.082031 -9.671875 30.1875 -12.640625 30.1875 -16.453125 L 30.1875 -20.15625 L 23.96875 -19.890625 C 19.03125 -19.722656 15.46875 -18.957031 13.28125 -17.59375 C 11.101562 -16.238281 10.015625 -14.125 10.015625 -11.25 C 10.015625 -9.007812 10.691406 -7.300781 12.046875 -6.125 C 13.410156 -4.957031 15.316406 -4.375 17.765625 -4.375 Z M 17.765625 -4.375 "/></g></g></g><g fill="#df901a" fill-opacity="1"><g transform="translate(159.215227, 205.60587)"><g><path d="M 19.828125 -4.375 C 20.921875 -4.375 21.976562 -4.453125 23 -4.609375 C 24.019531 -4.773438 24.832031 -4.945312 25.4375 -5.125 L 25.4375 -0.375 C 24.757812 -0.0507812 23.765625 0.210938 22.453125 0.421875 C 21.148438 0.640625 19.972656 0.75 18.921875 0.75 C 10.992188 0.75 7.03125 -3.425781 7.03125 -11.78125 L 7.03125 -36.171875 L 1.15625 -36.171875 L 1.15625 -39.15625 L 7.03125 -41.734375 L 9.65625 -50.484375 L 13.234375 -50.484375 L 13.234375 -40.984375 L 25.125 -40.984375 L 25.125 -36.171875 L 13.234375 -36.171875 L 13.234375 -12.046875 C 13.234375 -9.578125 13.816406 -7.679688 14.984375 -6.359375 C 16.160156 -5.035156 17.773438 -4.375 19.828125 -4.375 Z M 19.828125 -4.375 "/></g></g></g><g fill="#df901a" fill-opacity="1"><g transform="translate(186.253639, 205.60587)"><g><path d="M 31.796875 0 L 30.5625 -5.828125 L 30.25 -5.828125 C 28.207031 -3.265625 26.171875 -1.523438 24.140625 -0.609375 C 22.109375 0.296875 19.570312 0.75 16.53125 0.75 C 12.46875 0.75 9.28125 -0.296875 6.96875 -2.390625 C 4.664062 -4.484375 3.515625 -7.460938 3.515625 -11.328125 C 3.515625 -19.609375 10.132812 -23.945312 23.375 -24.34375 L 30.328125 -24.578125 L 30.328125 -27.109375 C 30.328125 -30.328125 29.632812 -32.703125 28.25 -34.234375 C 26.863281 -35.773438 24.648438 -36.546875 21.609375 -36.546875 C 18.203125 -36.546875 14.335938 -35.492188 10.015625 -33.390625 L 8.109375 -38.140625 C 10.128906 -39.242188 12.34375 -40.101562 14.75 -40.71875 C 17.15625 -41.34375 19.566406 -41.65625 21.984375 -41.65625 C 26.878906 -41.65625 30.503906 -40.570312 32.859375 -38.40625 C 35.210938 -36.238281 36.390625 -32.757812 36.390625 -27.96875 L 36.390625 0 Z M 17.765625 -4.375 C 21.628906 -4.375 24.664062 -5.429688 26.875 -7.546875 C 29.082031 -9.671875 30.1875 -12.640625 30.1875 -16.453125 L 30.1875 -20.15625 L 23.96875 -19.890625 C 19.03125 -19.722656 15.46875 -18.957031 13.28125 -17.59375 C 11.101562 -16.238281 10.015625 -14.125 10.015625 -11.25 C 10.015625 -9.007812 10.691406 -7.300781 12.046875 -6.125 C 13.410156 -4.957031 15.316406 -4.375 17.765625 -4.375 Z M 17.765625 -4.375 "/></g></g></g><g fill="#42e84e" fill-opacity="1"><g transform="translate(59.984811, 296.987416)"><g><path d="M 38.078125 -54.671875 L 49.78125 -54.671875 L 31.1875 0 L 18.546875 0 L 0 -54.671875 L 11.703125 -54.671875 L 21.984375 -22.140625 C 22.554688 -20.222656 23.148438 -17.984375 23.765625 -15.421875 C 24.378906 -12.867188 24.757812 -11.09375 24.90625 -10.09375 C 25.175781 -12.382812 26.113281 -16.398438 27.71875 -22.140625 Z M 38.078125 -54.671875 "/></g></g></g><g fill="#df901a" fill-opacity="1"><g transform="translate(109.745313, 296.987416)"><g><path d="M 12.796875 0 L 6.578125 0 L 6.578125 -40.984375 L 12.796875 -40.984375 Z M 6.0625 -52.09375 C 6.0625 -53.519531 6.410156 -54.5625 7.109375 -55.21875 C 7.804688 -55.882812 8.675781 -56.21875 9.71875 -56.21875 C 10.71875 -56.21875 11.578125 -55.878906 12.296875 -55.203125 C 13.023438 -54.523438 13.390625 -53.488281 13.390625 -52.09375 C 13.390625 -50.695312 13.023438 -49.65625 12.296875 -48.96875 C 11.578125 -48.289062 10.71875 -47.953125 9.71875 -47.953125 C 8.675781 -47.953125 7.804688 -48.289062 7.109375 -48.96875 C 6.410156 -49.65625 6.0625 -50.695312 6.0625 -52.09375 Z M 6.0625 -52.09375 "/></g></g></g><g fill="#df901a" fill-opacity="1"><g transform="translate(129.117232, 296.987416)"><g><path d="M 33.03125 -11.1875 C 33.03125 -7.363281 31.609375 -4.414062 28.765625 -2.34375 C 25.921875 -0.28125 21.929688 0.75 16.796875 0.75 C 11.359375 0.75 7.117188 -0.109375 4.078125 -1.828125 L 4.078125 -7.59375 C 6.046875 -6.59375 8.15625 -5.804688 10.40625 -5.234375 C 12.664062 -4.660156 14.84375 -4.375 16.9375 -4.375 C 20.175781 -4.375 22.671875 -4.890625 24.421875 -5.921875 C 26.171875 -6.960938 27.046875 -8.539062 27.046875 -10.65625 C 27.046875 -12.25 26.351562 -13.613281 24.96875 -14.75 C 23.582031 -15.882812 20.878906 -17.226562 16.859375 -18.78125 C 13.046875 -20.195312 10.335938 -21.429688 8.734375 -22.484375 C 7.128906 -23.546875 5.929688 -24.75 5.140625 -26.09375 C 4.359375 -27.445312 3.96875 -29.054688 3.96875 -30.921875 C 3.96875 -34.265625 5.328125 -36.898438 8.046875 -38.828125 C 10.765625 -40.765625 14.488281 -41.734375 19.21875 -41.734375 C 23.632812 -41.734375 27.945312 -40.835938 32.15625 -39.046875 L 29.953125 -34 C 25.835938 -35.695312 22.113281 -36.546875 18.78125 -36.546875 C 15.832031 -36.546875 13.609375 -36.082031 12.109375 -35.15625 C 10.617188 -34.226562 9.875 -32.957031 9.875 -31.34375 C 9.875 -30.238281 10.15625 -29.300781 10.71875 -28.53125 C 11.28125 -27.757812 12.179688 -27.023438 13.421875 -26.328125 C 14.671875 -25.628906 17.066406 -24.617188 20.609375 -23.296875 C 25.472656 -21.523438 28.757812 -19.742188 30.46875 -17.953125 C 32.175781 -16.160156 33.03125 -13.90625 33.03125 -11.1875 Z M 33.03125 -11.1875 "/></g></g></g><g fill="#df901a" fill-opacity="1"><g transform="translate(165.654616, 296.987416)"><g><path d="M 12.421875 -40.984375 L 12.421875 -14.40625 C 12.421875 -11.0625 13.179688 -8.566406 14.703125 -6.921875 C 16.222656 -5.273438 18.601562 -4.453125 21.84375 -4.453125 C 26.132812 -4.453125 29.269531 -5.625 31.25 -7.96875 C 33.226562 -10.3125 34.21875 -14.140625 34.21875 -19.453125 L 34.21875 -40.984375 L 40.421875 -40.984375 L 40.421875 0 L 35.3125 0 L 34.40625 -5.5 L 34.078125 -5.5 C 32.796875 -3.476562 31.023438 -1.929688 28.765625 -0.859375 C 26.515625 0.210938 23.945312 0.75 21.0625 0.75 C 16.070312 0.75 12.335938 -0.429688 9.859375 -2.796875 C 7.378906 -5.171875 6.140625 -8.960938 6.140625 -14.171875 L 6.140625 -40.984375 Z M 12.421875 -40.984375 "/></g></g></g><g fill="#df901a" fill-opacity="1"><g transform="translate(212.663307, 296.987416)"><g><path d="M 31.796875 0 L 30.5625 -5.828125 L 30.25 -5.828125 C 28.207031 -3.265625 26.171875 -1.523438 24.140625 -0.609375 C 22.109375 0.296875 19.570312 0.75 16.53125 0.75 C 12.46875 0.75 9.28125 -0.296875 6.96875 -2.390625 C 4.664062 -4.484375 3.515625 -7.460938 3.515625 -11.328125 C 3.515625 -19.609375 10.132812 -23.945312 23.375 -24.34375 L 30.328125 -24.578125 L 30.328125 -27.109375 C 30.328125 -30.328125 29.632812 -32.703125 28.25 -34.234375 C 26.863281 -35.773438 24.648438 -36.546875 21.609375 -36.546875 C 18.203125 -36.546875 14.335938 -35.492188 10.015625 -33.390625 L 8.109375 -38.140625 C 10.128906 -39.242188 12.34375 -40.101562 14.75 -40.71875 C 17.15625 -41.34375 19.566406 -41.65625 21.984375 -41.65625 C 26.878906 -41.65625 30.503906 -40.570312 32.859375 -38.40625 C 35.210938 -36.238281 36.390625 -32.757812 36.390625 -27.96875 L 36.390625 0 Z M 17.765625 -4.375 C 21.628906 -4.375 24.664062 -5.429688 26.875 -7.546875 C 29.082031 -9.671875 30.1875 -12.640625 30.1875 -16.453125 L 30.1875 -20.15625 L 23.96875 -19.890625 C 19.03125 -19.722656 15.46875 -18.957031 13.28125 -17.59375 C 11.101562 -16.238281 10.015625 -14.125 10.015625 -11.25 C 10.015625 -9.007812 10.691406 -7.300781 12.046875 -6.125 C 13.410156 -4.957031 15.316406 -4.375 17.765625 -4.375 Z M 17.765625 -4.375 "/></g></g></g><g fill="#df901a" fill-opacity="1"><g transform="translate(255.259089, 296.987416)"><g><path d="M 12.796875 0 L 6.578125 0 L 6.578125 -58.1875 L 12.796875 -58.1875 Z M 12.796875 0 "/></g></g></g><g fill="#df901a" fill-opacity="1"><g transform="translate(274.631008, 296.987416)"><g><path d="M 12.796875 0 L 6.578125 0 L 6.578125 -40.984375 L 12.796875 -40.984375 Z M 6.0625 -52.09375 C 6.0625 -53.519531 6.410156 -54.5625 7.109375 -55.21875 C 7.804688 -55.882812 8.675781 -56.21875 9.71875 -56.21875 C 10.71875 -56.21875 11.578125 -55.878906 12.296875 -55.203125 C 13.023438 -54.523438 13.390625 -53.488281 13.390625 -52.09375 C 13.390625 -50.695312 13.023438 -49.65625 12.296875 -48.96875 C 11.578125 -48.289062 10.71875 -47.953125 9.71875 -47.953125 C 8.675781 -47.953125 7.804688 -48.289062 7.109375 -48.96875 C 6.410156 -49.65625 6.0625 -50.695312 6.0625 -52.09375 Z M 6.0625 -52.09375 "/></g></g></g><g fill="#df901a" fill-opacity="1"><g transform="translate(294.002926, 296.987416)"><g><path d="M 32.796875 0 L 3.0625 0 L 3.0625 -4.21875 L 25.4375 -36.171875 L 4.453125 -36.171875 L 4.453125 -40.984375 L 32.234375 -40.984375 L 32.234375 -36.171875 L 10.171875 -4.828125 L 32.796875 -4.828125 Z M 32.796875 0 "/></g></g></g><g fill="#df901a" fill-opacity="1"><g transform="translate(329.829755, 296.987416)"><g><path d="M 23.890625 0.75 C 17.835938 0.75 13.054688 -1.09375 9.546875 -4.78125 C 6.046875 -8.476562 4.296875 -13.601562 4.296875 -20.15625 C 4.296875 -26.757812 5.921875 -32.003906 9.171875 -35.890625 C 12.429688 -39.785156 16.804688 -41.734375 22.296875 -41.734375 C 27.429688 -41.734375 31.492188 -40.046875 34.484375 -36.671875 C 37.472656 -33.296875 38.96875 -28.835938 38.96875 -23.296875 L 38.96875 -19.375 L 10.734375 -19.375 C 10.859375 -14.5625 12.070312 -10.90625 14.375 -8.40625 C 16.6875 -5.914062 19.9375 -4.671875 24.125 -4.671875 C 28.539062 -4.671875 32.90625 -5.59375 37.21875 -7.4375 L 37.21875 -1.90625 C 35.019531 -0.957031 32.941406 -0.28125 30.984375 0.125 C 29.023438 0.539062 26.660156 0.75 23.890625 0.75 Z M 22.21875 -36.546875 C 18.925781 -36.546875 16.300781 -35.472656 14.34375 -33.328125 C 12.382812 -31.179688 11.234375 -28.210938 10.890625 -24.421875 L 32.3125 -24.421875 C 32.3125 -28.335938 31.4375 -31.335938 29.6875 -33.421875 C 27.945312 -35.503906 25.457031 -36.546875 22.21875 -36.546875 Z M 22.21875 -36.546875 "/></g></g></g><g fill="#df901a" fill-opacity="1"><g transform="translate(372.799514, 296.987416)"><g><path d="M 25.28125 -41.734375 C 27.101562 -41.734375 28.738281 -41.582031 30.1875 -41.28125 L 29.328125 -35.53125 C 27.628906 -35.90625 26.128906 -36.09375 24.828125 -36.09375 C 21.515625 -36.09375 18.679688 -34.742188 16.328125 -32.046875 C 13.972656 -29.359375 12.796875 -26.003906 12.796875 -21.984375 L 12.796875 0 L 6.578125 0 L 6.578125 -40.984375 L 11.703125 -40.984375 L 12.421875 -33.390625 L 12.71875 -33.390625 C 14.238281 -36.066406 16.070312 -38.125 18.21875 -39.5625 C 20.363281 -41.007812 22.71875 -41.734375 25.28125 -41.734375 Z M 25.28125 -41.734375 "/></g></g></g></svg>