<svg xmlns="http://www.w3.org/2000/svg" xmlns:xlink="http://www.w3.org/1999/xlink" width="50" zoomAndPan="magnify" viewBox="0 0 37.5 37.499999" height="50" preserveAspectRatio="xMidYMid meet" version="1.0"><defs><g/></defs><g fill="#e40606" fill-opacity="1"><g transform="translate(4.994459, 12.82695)"><g><path d="M 2.5 0 L 1.40625 -3.578125 L 1.375 -3.578125 C 1.414062 -2.847656 1.4375 -2.359375 1.4375 -2.109375 L 1.4375 0 L 0.578125 0 L 0.578125 -4.546875 L 1.890625 -4.546875 L 2.96875 -1.078125 L 2.984375 -1.078125 L 4.125 -4.546875 L 5.4375 -4.546875 L 5.4375 0 L 4.53125 0 L 4.53125 -2.15625 C 4.53125 -2.257812 4.53125 -2.375 4.53125 -2.5 C 4.539062 -2.632812 4.554688 -2.988281 4.578125 -3.5625 L 4.5625 -3.5625 L 3.390625 0 Z M 2.5 0 "/></g></g></g><g fill="#df901a" fill-opacity="1"><g transform="translate(11.007185, 12.82695)"><g><path d="M 1.0625 0 L 0.546875 0 L 0.546875 -3.40625 L 1.0625 -3.40625 Z M 0.5 -4.34375 C 0.5 -4.457031 0.523438 -4.539062 0.578125 -4.59375 C 0.640625 -4.644531 0.71875 -4.671875 0.8125 -4.671875 C 0.894531 -4.671875 0.960938 -4.644531 1.015625 -4.59375 C 1.078125 -4.539062 1.109375 -4.457031 1.109375 -4.34375 C 1.109375 -4.21875 1.078125 -4.125 1.015625 -4.0625 C 0.960938 -4.007812 0.894531 -3.984375 0.8125 -3.984375 C 0.71875 -3.984375 0.640625 -4.007812 0.578125 -4.0625 C 0.523438 -4.125 0.5 -4.21875 0.5 -4.34375 Z M 0.5 -4.34375 "/></g></g></g><g fill="#df901a" fill-opacity="1"><g transform="translate(12.62043, 12.82695)"><g><path d="M 3.34375 -3.40625 L 3.34375 -3.078125 L 2.703125 -3.015625 C 2.765625 -2.941406 2.816406 -2.84375 2.859375 -2.71875 C 2.910156 -2.601562 2.9375 -2.472656 2.9375 -2.328125 C 2.9375 -1.992188 2.820312 -1.726562 2.59375 -1.53125 C 2.363281 -1.332031 2.050781 -1.234375 1.65625 -1.234375 C 1.550781 -1.234375 1.453125 -1.238281 1.359375 -1.25 C 1.140625 -1.132812 1.03125 -0.988281 1.03125 -0.8125 C 1.03125 -0.71875 1.066406 -0.648438 1.140625 -0.609375 C 1.222656 -0.566406 1.359375 -0.546875 1.546875 -0.546875 L 2.140625 -0.546875 C 2.515625 -0.546875 2.800781 -0.46875 3 -0.3125 C 3.195312 -0.15625 3.296875 0.0703125 3.296875 0.375 C 3.296875 0.75 3.144531 1.035156 2.84375 1.234375 C 2.539062 1.429688 2.097656 1.53125 1.515625 1.53125 C 1.066406 1.53125 0.722656 1.445312 0.484375 1.28125 C 0.242188 1.113281 0.125 0.878906 0.125 0.578125 C 0.125 0.367188 0.1875 0.1875 0.3125 0.03125 C 0.445312 -0.113281 0.632812 -0.210938 0.875 -0.265625 C 0.789062 -0.304688 0.71875 -0.367188 0.65625 -0.453125 C 0.601562 -0.535156 0.578125 -0.628906 0.578125 -0.734375 C 0.578125 -0.859375 0.609375 -0.96875 0.671875 -1.0625 C 0.734375 -1.15625 0.835938 -1.25 0.984375 -1.34375 C 0.804688 -1.414062 0.660156 -1.535156 0.546875 -1.703125 C 0.441406 -1.878906 0.390625 -2.082031 0.390625 -2.3125 C 0.390625 -2.675781 0.5 -2.957031 0.71875 -3.15625 C 0.945312 -3.363281 1.265625 -3.46875 1.671875 -3.46875 C 1.859375 -3.46875 2.019531 -3.445312 2.15625 -3.40625 Z M 0.625 0.578125 C 0.625 0.753906 0.703125 0.890625 0.859375 0.984375 C 1.015625 1.085938 1.234375 1.140625 1.515625 1.140625 C 1.953125 1.140625 2.273438 1.070312 2.484375 0.9375 C 2.691406 0.8125 2.796875 0.632812 2.796875 0.40625 C 2.796875 0.226562 2.738281 0.101562 2.625 0.03125 C 2.507812 -0.0390625 2.296875 -0.078125 1.984375 -0.078125 L 1.359375 -0.078125 C 1.128906 -0.078125 0.945312 -0.0195312 0.8125 0.09375 C 0.6875 0.207031 0.625 0.367188 0.625 0.578125 Z M 0.90625 -2.3125 C 0.90625 -2.082031 0.96875 -1.90625 1.09375 -1.78125 C 1.226562 -1.65625 1.421875 -1.59375 1.671875 -1.59375 C 2.171875 -1.59375 2.421875 -1.835938 2.421875 -2.328125 C 2.421875 -2.835938 2.164062 -3.09375 1.65625 -3.09375 C 1.414062 -3.09375 1.226562 -3.023438 1.09375 -2.890625 C 0.96875 -2.765625 0.90625 -2.570312 0.90625 -2.3125 Z M 0.90625 -2.3125 "/></g></g></g><g fill="#df901a" fill-opacity="1"><g transform="translate(16.114756, 12.82695)"><g><path d="M 2.109375 -3.46875 C 2.253906 -3.46875 2.390625 -3.457031 2.515625 -3.4375 L 2.4375 -2.953125 C 2.300781 -2.984375 2.175781 -3 2.0625 -3 C 1.789062 -3 1.554688 -2.882812 1.359375 -2.65625 C 1.160156 -2.4375 1.0625 -2.160156 1.0625 -1.828125 L 1.0625 0 L 0.546875 0 L 0.546875 -3.40625 L 0.96875 -3.40625 L 1.03125 -2.78125 L 1.0625 -2.78125 C 1.1875 -3 1.335938 -3.164062 1.515625 -3.28125 C 1.691406 -3.40625 1.890625 -3.46875 2.109375 -3.46875 Z M 2.109375 -3.46875 "/></g></g></g><g fill="#df901a" fill-opacity="1"><g transform="translate(18.718372, 12.82695)"><g><path d="M 2.640625 0 L 2.546875 -0.484375 L 2.515625 -0.484375 C 2.347656 -0.273438 2.175781 -0.128906 2 -0.046875 C 1.832031 0.0234375 1.625 0.0625 1.375 0.0625 C 1.039062 0.0625 0.773438 -0.0195312 0.578125 -0.1875 C 0.390625 -0.363281 0.296875 -0.613281 0.296875 -0.9375 C 0.296875 -1.632812 0.847656 -2 1.953125 -2.03125 L 2.53125 -2.046875 L 2.53125 -2.25 C 2.53125 -2.519531 2.46875 -2.71875 2.34375 -2.84375 C 2.226562 -2.976562 2.046875 -3.046875 1.796875 -3.046875 C 1.515625 -3.046875 1.191406 -2.957031 0.828125 -2.78125 L 0.671875 -3.171875 C 0.835938 -3.265625 1.019531 -3.335938 1.21875 -3.390625 C 1.425781 -3.441406 1.628906 -3.46875 1.828125 -3.46875 C 2.234375 -3.46875 2.535156 -3.375 2.734375 -3.1875 C 2.929688 -3.007812 3.03125 -2.722656 3.03125 -2.328125 L 3.03125 0 Z M 1.484375 -0.359375 C 1.804688 -0.359375 2.054688 -0.445312 2.234375 -0.625 C 2.421875 -0.800781 2.515625 -1.050781 2.515625 -1.375 L 2.515625 -1.671875 L 2 -1.65625 C 1.582031 -1.644531 1.28125 -1.582031 1.09375 -1.46875 C 0.914062 -1.351562 0.828125 -1.175781 0.828125 -0.9375 C 0.828125 -0.75 0.882812 -0.601562 1 -0.5 C 1.113281 -0.40625 1.273438 -0.359375 1.484375 -0.359375 Z M 1.484375 -0.359375 "/></g></g></g><g fill="#df901a" fill-opacity="1"><g transform="translate(22.265642, 12.82695)"><g><path d="M 1.65625 -0.359375 C 1.738281 -0.359375 1.820312 -0.363281 1.90625 -0.375 C 2 -0.394531 2.066406 -0.410156 2.109375 -0.421875 L 2.109375 -0.03125 C 2.054688 0 1.972656 0.0195312 1.859375 0.03125 C 1.753906 0.0507812 1.660156 0.0625 1.578125 0.0625 C 0.910156 0.0625 0.578125 -0.285156 0.578125 -0.984375 L 0.578125 -3.015625 L 0.09375 -3.015625 L 0.09375 -3.265625 L 0.578125 -3.46875 L 0.796875 -4.203125 L 1.109375 -4.203125 L 1.109375 -3.40625 L 2.09375 -3.40625 L 2.09375 -3.015625 L 1.109375 -3.015625 L 1.109375 -1 C 1.109375 -0.789062 1.15625 -0.628906 1.25 -0.515625 C 1.34375 -0.410156 1.476562 -0.359375 1.65625 -0.359375 Z M 1.65625 -0.359375 "/></g></g></g><g fill="#df901a" fill-opacity="1"><g transform="translate(24.517334, 12.82695)"><g><path d="M 1.0625 0 L 0.546875 0 L 0.546875 -3.40625 L 1.0625 -3.40625 Z M 0.5 -4.34375 C 0.5 -4.457031 0.523438 -4.539062 0.578125 -4.59375 C 0.640625 -4.644531 0.71875 -4.671875 0.8125 -4.671875 C 0.894531 -4.671875 0.960938 -4.644531 1.015625 -4.59375 C 1.078125 -4.539062 1.109375 -4.457031 1.109375 -4.34375 C 1.109375 -4.21875 1.078125 -4.125 1.015625 -4.0625 C 0.960938 -4.007812 0.894531 -3.984375 0.8125 -3.984375 C 0.71875 -3.984375 0.640625 -4.007812 0.578125 -4.0625 C 0.523438 -4.125 0.5 -4.21875 0.5 -4.34375 Z M 0.5 -4.34375 "/></g></g></g><g fill="#df901a" fill-opacity="1"><g transform="translate(26.130579, 12.82695)"><g><path d="M 3.5 -1.703125 C 3.5 -1.148438 3.359375 -0.71875 3.078125 -0.40625 C 2.796875 -0.09375 2.40625 0.0625 1.90625 0.0625 C 1.601562 0.0625 1.332031 -0.0078125 1.09375 -0.15625 C 0.863281 -0.300781 0.679688 -0.503906 0.546875 -0.765625 C 0.421875 -1.035156 0.359375 -1.347656 0.359375 -1.703125 C 0.359375 -2.265625 0.492188 -2.695312 0.765625 -3 C 1.046875 -3.3125 1.4375 -3.46875 1.9375 -3.46875 C 2.414062 -3.46875 2.796875 -3.304688 3.078125 -2.984375 C 3.359375 -2.671875 3.5 -2.242188 3.5 -1.703125 Z M 0.890625 -1.703125 C 0.890625 -1.273438 0.976562 -0.945312 1.15625 -0.71875 C 1.332031 -0.488281 1.585938 -0.375 1.921875 -0.375 C 2.265625 -0.375 2.519531 -0.484375 2.6875 -0.703125 C 2.863281 -0.929688 2.953125 -1.265625 2.953125 -1.703125 C 2.953125 -2.140625 2.863281 -2.46875 2.6875 -2.6875 C 2.519531 -2.914062 2.265625 -3.03125 1.921875 -3.03125 C 1.578125 -3.03125 1.316406 -2.921875 1.140625 -2.703125 C 0.972656 -2.484375 0.890625 -2.148438 0.890625 -1.703125 Z M 0.890625 -1.703125 "/></g></g></g><g fill="#df901a" fill-opacity="1"><g transform="translate(29.983058, 12.82695)"><g><path d="M 2.875 0 L 2.875 -2.203125 C 2.875 -2.484375 2.8125 -2.691406 2.6875 -2.828125 C 2.5625 -2.960938 2.363281 -3.03125 2.09375 -3.03125 C 1.738281 -3.03125 1.476562 -2.929688 1.3125 -2.734375 C 1.144531 -2.546875 1.0625 -2.234375 1.0625 -1.796875 L 1.0625 0 L 0.546875 0 L 0.546875 -3.40625 L 0.96875 -3.40625 L 1.046875 -2.9375 L 1.078125 -2.9375 C 1.179688 -3.113281 1.328125 -3.242188 1.515625 -3.328125 C 1.710938 -3.421875 1.925781 -3.46875 2.15625 -3.46875 C 2.570312 -3.46875 2.882812 -3.367188 3.09375 -3.171875 C 3.300781 -2.972656 3.40625 -2.65625 3.40625 -2.21875 L 3.40625 0 Z M 2.875 0 "/></g></g></g><g fill="#6d38d1" fill-opacity="1"><g transform="translate(4.994459, 20.25882)"><g><path d="M 4.359375 -2.328125 C 4.359375 -1.578125 4.144531 -1 3.71875 -0.59375 C 3.289062 -0.195312 2.671875 0 1.859375 0 L 0.578125 0 L 0.578125 -4.5625 L 2 -4.5625 C 2.75 -4.5625 3.328125 -4.363281 3.734375 -3.96875 C 4.148438 -3.570312 4.359375 -3.023438 4.359375 -2.328125 Z M 3.359375 -2.296875 C 3.359375 -3.273438 2.925781 -3.765625 2.0625 -3.765625 L 1.546875 -3.765625 L 1.546875 -0.796875 L 1.953125 -0.796875 C 2.890625 -0.796875 3.359375 -1.296875 3.359375 -2.296875 Z M 3.359375 -2.296875 "/></g></g></g><g fill="#df901a" fill-opacity="1"><g transform="translate(9.718286, 20.25882)"><g><path d="M 2.65625 0 L 2.546875 -0.484375 L 2.53125 -0.484375 C 2.351562 -0.273438 2.179688 -0.128906 2.015625 -0.046875 C 1.847656 0.0234375 1.632812 0.0625 1.375 0.0625 C 1.039062 0.0625 0.773438 -0.0234375 0.578125 -0.203125 C 0.390625 -0.378906 0.296875 -0.628906 0.296875 -0.953125 C 0.296875 -1.640625 0.847656 -2 1.953125 -2.03125 L 2.53125 -2.046875 L 2.53125 -2.265625 C 2.53125 -2.535156 2.472656 -2.734375 2.359375 -2.859375 C 2.242188 -2.984375 2.054688 -3.046875 1.796875 -3.046875 C 1.515625 -3.046875 1.195312 -2.957031 0.84375 -2.78125 L 0.671875 -3.1875 C 0.847656 -3.269531 1.035156 -3.335938 1.234375 -3.390625 C 1.429688 -3.441406 1.628906 -3.46875 1.828125 -3.46875 C 2.242188 -3.46875 2.546875 -3.378906 2.734375 -3.203125 C 2.929688 -3.023438 3.03125 -2.734375 3.03125 -2.328125 L 3.03125 0 Z M 1.484375 -0.359375 C 1.804688 -0.359375 2.054688 -0.445312 2.234375 -0.625 C 2.421875 -0.800781 2.515625 -1.050781 2.515625 -1.375 L 2.515625 -1.6875 L 2 -1.65625 C 1.582031 -1.644531 1.285156 -1.582031 1.109375 -1.46875 C 0.929688 -1.351562 0.84375 -1.175781 0.84375 -0.9375 C 0.84375 -0.75 0.894531 -0.601562 1 -0.5 C 1.113281 -0.40625 1.273438 -0.359375 1.484375 -0.359375 Z M 1.484375 -0.359375 "/></g></g></g><g fill="#df901a" fill-opacity="1"><g transform="translate(13.267934, 20.25882)"><g><path d="M 1.65625 -0.359375 C 1.75 -0.359375 1.835938 -0.363281 1.921875 -0.375 C 2.003906 -0.394531 2.070312 -0.410156 2.125 -0.421875 L 2.125 -0.03125 C 2.0625 0 1.972656 0.0195312 1.859375 0.03125 C 1.753906 0.0507812 1.660156 0.0625 1.578125 0.0625 C 0.921875 0.0625 0.59375 -0.285156 0.59375 -0.984375 L 0.59375 -3.015625 L 0.09375 -3.015625 L 0.09375 -3.265625 L 0.59375 -3.484375 L 0.8125 -4.21875 L 1.109375 -4.21875 L 1.109375 -3.421875 L 2.09375 -3.421875 L 2.09375 -3.015625 L 1.109375 -3.015625 L 1.109375 -1 C 1.109375 -0.800781 1.15625 -0.644531 1.25 -0.53125 C 1.34375 -0.414062 1.476562 -0.359375 1.65625 -0.359375 Z M 1.65625 -0.359375 "/></g></g></g><g fill="#df901a" fill-opacity="1"><g transform="translate(15.521134, 20.25882)"><g><path d="M 2.65625 0 L 2.546875 -0.484375 L 2.53125 -0.484375 C 2.351562 -0.273438 2.179688 -0.128906 2.015625 -0.046875 C 1.847656 0.0234375 1.632812 0.0625 1.375 0.0625 C 1.039062 0.0625 0.773438 -0.0234375 0.578125 -0.203125 C 0.390625 -0.378906 0.296875 -0.628906 0.296875 -0.953125 C 0.296875 -1.640625 0.847656 -2 1.953125 -2.03125 L 2.53125 -2.046875 L 2.53125 -2.265625 C 2.53125 -2.535156 2.472656 -2.734375 2.359375 -2.859375 C 2.242188 -2.984375 2.054688 -3.046875 1.796875 -3.046875 C 1.515625 -3.046875 1.195312 -2.957031 0.84375 -2.78125 L 0.671875 -3.1875 C 0.847656 -3.269531 1.035156 -3.335938 1.234375 -3.390625 C 1.429688 -3.441406 1.628906 -3.46875 1.828125 -3.46875 C 2.242188 -3.46875 2.546875 -3.378906 2.734375 -3.203125 C 2.929688 -3.023438 3.03125 -2.734375 3.03125 -2.328125 L 3.03125 0 Z M 1.484375 -0.359375 C 1.804688 -0.359375 2.054688 -0.445312 2.234375 -0.625 C 2.421875 -0.800781 2.515625 -1.050781 2.515625 -1.375 L 2.515625 -1.6875 L 2 -1.65625 C 1.582031 -1.644531 1.285156 -1.582031 1.109375 -1.46875 C 0.929688 -1.351562 0.84375 -1.175781 0.84375 -0.9375 C 0.84375 -0.75 0.894531 -0.601562 1 -0.5 C 1.113281 -0.40625 1.273438 -0.359375 1.484375 -0.359375 Z M 1.484375 -0.359375 "/></g></g></g><g fill="#42e84e" fill-opacity="1"><g transform="translate(4.998734, 27.873948)"><g><path d="M 3.171875 -4.5625 L 4.15625 -4.5625 L 2.609375 0 L 1.546875 0 L 0 -4.5625 L 0.984375 -4.5625 L 1.828125 -1.84375 C 1.878906 -1.6875 1.929688 -1.5 1.984375 -1.28125 C 2.035156 -1.070312 2.066406 -0.925781 2.078125 -0.84375 C 2.097656 -1.03125 2.175781 -1.363281 2.3125 -1.84375 Z M 3.171875 -4.5625 "/></g></g></g><g fill="#df901a" fill-opacity="1"><g transform="translate(9.145442, 27.873948)"><g><path d="M 1.0625 0 L 0.546875 0 L 0.546875 -3.421875 L 1.0625 -3.421875 Z M 0.5 -4.34375 C 0.5 -4.46875 0.53125 -4.554688 0.59375 -4.609375 C 0.65625 -4.660156 0.726562 -4.6875 0.8125 -4.6875 C 0.894531 -4.6875 0.960938 -4.65625 1.015625 -4.59375 C 1.078125 -4.539062 1.109375 -4.457031 1.109375 -4.34375 C 1.109375 -4.226562 1.078125 -4.140625 1.015625 -4.078125 C 0.960938 -4.023438 0.894531 -4 0.8125 -4 C 0.726562 -4 0.65625 -4.023438 0.59375 -4.078125 C 0.53125 -4.140625 0.5 -4.226562 0.5 -4.34375 Z M 0.5 -4.34375 "/></g></g></g><g fill="#df901a" fill-opacity="1"><g transform="translate(10.759768, 27.873948)"><g><path d="M 2.75 -0.9375 C 2.75 -0.613281 2.628906 -0.363281 2.390625 -0.1875 C 2.160156 -0.0195312 1.832031 0.0625 1.40625 0.0625 C 0.945312 0.0625 0.59375 -0.0078125 0.34375 -0.15625 L 0.34375 -0.640625 C 0.507812 -0.554688 0.6875 -0.488281 0.875 -0.4375 C 1.0625 -0.382812 1.238281 -0.359375 1.40625 -0.359375 C 1.675781 -0.359375 1.882812 -0.398438 2.03125 -0.484375 C 2.175781 -0.578125 2.25 -0.710938 2.25 -0.890625 C 2.25 -1.023438 2.191406 -1.140625 2.078125 -1.234375 C 1.960938 -1.328125 1.738281 -1.4375 1.40625 -1.5625 C 1.09375 -1.6875 0.867188 -1.789062 0.734375 -1.875 C 0.597656 -1.96875 0.492188 -2.066406 0.421875 -2.171875 C 0.359375 -2.285156 0.328125 -2.421875 0.328125 -2.578125 C 0.328125 -2.859375 0.441406 -3.078125 0.671875 -3.234375 C 0.898438 -3.398438 1.210938 -3.484375 1.609375 -3.484375 C 1.972656 -3.484375 2.332031 -3.40625 2.6875 -3.25 L 2.5 -2.84375 C 2.15625 -2.976562 1.84375 -3.046875 1.5625 -3.046875 C 1.320312 -3.046875 1.140625 -3.003906 1.015625 -2.921875 C 0.890625 -2.847656 0.828125 -2.742188 0.828125 -2.609375 C 0.828125 -2.523438 0.847656 -2.445312 0.890625 -2.375 C 0.941406 -2.3125 1.019531 -2.25 1.125 -2.1875 C 1.226562 -2.132812 1.425781 -2.050781 1.71875 -1.9375 C 2.125 -1.789062 2.394531 -1.640625 2.53125 -1.484375 C 2.675781 -1.335938 2.75 -1.15625 2.75 -0.9375 Z M 2.75 -0.9375 "/></g></g></g><g fill="#df901a" fill-opacity="1"><g transform="translate(13.804549, 27.873948)"><g><path d="M 1.03125 -3.421875 L 1.03125 -1.203125 C 1.03125 -0.921875 1.09375 -0.710938 1.21875 -0.578125 C 1.351562 -0.441406 1.554688 -0.375 1.828125 -0.375 C 2.179688 -0.375 2.441406 -0.46875 2.609375 -0.65625 C 2.773438 -0.851562 2.859375 -1.175781 2.859375 -1.625 L 2.859375 -3.421875 L 3.375 -3.421875 L 3.375 0 L 2.953125 0 L 2.875 -0.453125 L 2.84375 -0.453125 C 2.738281 -0.285156 2.59375 -0.15625 2.40625 -0.0625 C 2.21875 0.0195312 2 0.0625 1.75 0.0625 C 1.332031 0.0625 1.019531 -0.0351562 0.8125 -0.234375 C 0.613281 -0.429688 0.515625 -0.75 0.515625 -1.1875 L 0.515625 -3.421875 Z M 1.03125 -3.421875 "/></g></g></g><g fill="#df901a" fill-opacity="1"><g transform="translate(17.72194, 27.873948)"><g><path d="M 2.65625 0 L 2.546875 -0.484375 L 2.53125 -0.484375 C 2.351562 -0.273438 2.179688 -0.128906 2.015625 -0.046875 C 1.847656 0.0234375 1.632812 0.0625 1.375 0.0625 C 1.039062 0.0625 0.773438 -0.0234375 0.578125 -0.203125 C 0.390625 -0.378906 0.296875 -0.628906 0.296875 -0.953125 C 0.296875 -1.640625 0.847656 -2 1.953125 -2.03125 L 2.53125 -2.046875 L 2.53125 -2.265625 C 2.53125 -2.535156 2.472656 -2.734375 2.359375 -2.859375 C 2.242188 -2.984375 2.054688 -3.046875 1.796875 -3.046875 C 1.515625 -3.046875 1.195312 -2.957031 0.84375 -2.78125 L 0.671875 -3.1875 C 0.847656 -3.269531 1.035156 -3.335938 1.234375 -3.390625 C 1.429688 -3.441406 1.628906 -3.46875 1.828125 -3.46875 C 2.242188 -3.46875 2.546875 -3.378906 2.734375 -3.203125 C 2.929688 -3.023438 3.03125 -2.734375 3.03125 -2.328125 L 3.03125 0 Z M 1.484375 -0.359375 C 1.804688 -0.359375 2.054688 -0.445312 2.234375 -0.625 C 2.421875 -0.800781 2.515625 -1.050781 2.515625 -1.375 L 2.515625 -1.6875 L 2 -1.65625 C 1.582031 -1.644531 1.285156 -1.582031 1.109375 -1.46875 C 0.929688 -1.351562 0.84375 -1.175781 0.84375 -0.9375 C 0.84375 -0.75 0.894531 -0.601562 1 -0.5 C 1.113281 -0.40625 1.273438 -0.359375 1.484375 -0.359375 Z M 1.484375 -0.359375 "/></g></g></g><g fill="#df901a" fill-opacity="1"><g transform="translate(21.271588, 27.873948)"><g><path d="M 1.0625 0 L 0.546875 0 L 0.546875 -4.859375 L 1.0625 -4.859375 Z M 1.0625 0 "/></g></g></g><g fill="#df901a" fill-opacity="1"><g transform="translate(22.885914, 27.873948)"><g><path d="M 1.0625 0 L 0.546875 0 L 0.546875 -3.421875 L 1.0625 -3.421875 Z M 0.5 -4.34375 C 0.5 -4.46875 0.53125 -4.554688 0.59375 -4.609375 C 0.65625 -4.660156 0.726562 -4.6875 0.8125 -4.6875 C 0.894531 -4.6875 0.960938 -4.65625 1.015625 -4.59375 C 1.078125 -4.539062 1.109375 -4.457031 1.109375 -4.34375 C 1.109375 -4.226562 1.078125 -4.140625 1.015625 -4.078125 C 0.960938 -4.023438 0.894531 -4 0.8125 -4 C 0.726562 -4 0.65625 -4.023438 0.59375 -4.078125 C 0.53125 -4.140625 0.5 -4.226562 0.5 -4.34375 Z M 0.5 -4.34375 "/></g></g></g><g fill="#df901a" fill-opacity="1"><g transform="translate(24.50024, 27.873948)"><g><path d="M 2.734375 0 L 0.25 0 L 0.25 -0.359375 L 2.125 -3.015625 L 0.375 -3.015625 L 0.375 -3.421875 L 2.6875 -3.421875 L 2.6875 -3.015625 L 0.84375 -0.40625 L 2.734375 -0.40625 Z M 2.734375 0 "/></g></g></g><g fill="#df901a" fill-opacity="1"><g transform="translate(27.485809, 27.873948)"><g><path d="M 2 0.0625 C 1.488281 0.0625 1.085938 -0.0859375 0.796875 -0.390625 C 0.503906 -0.703125 0.359375 -1.132812 0.359375 -1.6875 C 0.359375 -2.238281 0.492188 -2.675781 0.765625 -3 C 1.035156 -3.320312 1.398438 -3.484375 1.859375 -3.484375 C 2.285156 -3.484375 2.625 -3.34375 2.875 -3.0625 C 3.125 -2.78125 3.25 -2.40625 3.25 -1.9375 L 3.25 -1.609375 L 0.890625 -1.609375 C 0.898438 -1.210938 1 -0.910156 1.1875 -0.703125 C 1.382812 -0.492188 1.660156 -0.390625 2.015625 -0.390625 C 2.378906 -0.390625 2.742188 -0.46875 3.109375 -0.625 L 3.109375 -0.15625 C 2.921875 -0.0820312 2.742188 -0.03125 2.578125 0 C 2.421875 0.0390625 2.226562 0.0625 2 0.0625 Z M 1.859375 -3.046875 C 1.578125 -3.046875 1.351562 -2.957031 1.1875 -2.78125 C 1.03125 -2.601562 0.9375 -2.351562 0.90625 -2.03125 L 2.703125 -2.03125 C 2.703125 -2.363281 2.628906 -2.613281 2.484375 -2.78125 C 2.335938 -2.957031 2.128906 -3.046875 1.859375 -3.046875 Z M 1.859375 -3.046875 "/></g></g></g><g fill="#df901a" fill-opacity="1"><g transform="translate(31.066621, 27.873948)"><g><path d="M 2.109375 -3.484375 C 2.265625 -3.484375 2.398438 -3.46875 2.515625 -3.4375 L 2.453125 -2.96875 C 2.304688 -3 2.179688 -3.015625 2.078125 -3.015625 C 1.796875 -3.015625 1.554688 -2.898438 1.359375 -2.671875 C 1.160156 -2.453125 1.0625 -2.171875 1.0625 -1.828125 L 1.0625 0 L 0.546875 0 L 0.546875 -3.421875 L 0.984375 -3.421875 L 1.03125 -2.78125 L 1.0625 -2.78125 C 1.1875 -3.007812 1.335938 -3.179688 1.515625 -3.296875 C 1.691406 -3.421875 1.890625 -3.484375 2.109375 -3.484375 Z M 2.109375 -3.484375 "/></g></g></g></svg>