<svg xmlns="http://www.w3.org/2000/svg" xmlns:xlink="http://www.w3.org/1999/xlink" width="500" zoomAndPan="magnify" viewBox="0 0 375 374.999991" height="500" preserveAspectRatio="xMidYMid meet" version="1.0"><defs><g/></defs><g fill="#e40606" fill-opacity="1"><g transform="translate(87.683509, 143.477113)"><g><path d="M 18.28125 0 L 10.265625 -26.109375 L 10.0625 -26.109375 C 10.34375 -20.796875 10.484375 -17.25 10.484375 -15.46875 L 10.484375 0 L 4.1875 0 L 4.1875 -33.265625 L 13.796875 -33.265625 L 21.671875 -7.828125 L 21.796875 -7.828125 L 30.15625 -33.265625 L 39.765625 -33.265625 L 39.765625 0 L 33.1875 0 L 33.1875 -15.75 C 33.1875 -16.488281 33.195312 -17.34375 33.21875 -18.3125 C 33.238281 -19.289062 33.335938 -21.875 33.515625 -26.0625 L 33.3125 -26.0625 L 24.734375 0 Z M 18.28125 0 "/></g></g></g><g fill="#df901a" fill-opacity="1"><g transform="translate(131.616821, 143.477113)"><g><path d="M 7.78125 0 L 4 0 L 4 -24.9375 L 7.78125 -24.9375 Z M 3.6875 -31.703125 C 3.6875 -32.566406 3.898438 -33.195312 4.328125 -33.59375 C 4.753906 -34 5.285156 -34.203125 5.921875 -34.203125 C 6.523438 -34.203125 7.046875 -34 7.484375 -33.59375 C 7.921875 -33.1875 8.140625 -32.554688 8.140625 -31.703125 C 8.140625 -30.847656 7.921875 -30.210938 7.484375 -29.796875 C 7.046875 -29.378906 6.523438 -29.171875 5.921875 -29.171875 C 5.285156 -29.171875 4.753906 -29.378906 4.328125 -29.796875 C 3.898438 -30.210938 3.6875 -30.847656 3.6875 -31.703125 Z M 3.6875 -31.703125 "/></g></g></g><g fill="#df901a" fill-opacity="1"><g transform="translate(143.404352, 143.477113)"><g><path d="M 24.421875 -24.9375 L 24.421875 -22.546875 L 19.796875 -22 C 20.222656 -21.46875 20.601562 -20.773438 20.9375 -19.921875 C 21.269531 -19.066406 21.4375 -18.097656 21.4375 -17.015625 C 21.4375 -14.578125 20.601562 -12.628906 18.9375 -11.171875 C 17.269531 -9.710938 14.976562 -8.984375 12.0625 -8.984375 C 11.320312 -8.984375 10.625 -9.046875 9.96875 -9.171875 C 8.363281 -8.316406 7.5625 -7.25 7.5625 -5.96875 C 7.5625 -5.28125 7.835938 -4.769531 8.390625 -4.4375 C 8.953125 -4.113281 9.914062 -3.953125 11.28125 -3.953125 L 15.703125 -3.953125 C 18.398438 -3.953125 20.472656 -3.382812 21.921875 -2.25 C 23.367188 -1.113281 24.09375 0.535156 24.09375 2.703125 C 24.09375 5.460938 22.984375 7.566406 20.765625 9.015625 C 18.554688 10.472656 15.328125 11.203125 11.078125 11.203125 C 7.816406 11.203125 5.300781 10.59375 3.53125 9.375 C 1.769531 8.164062 0.890625 6.453125 0.890625 4.234375 C 0.890625 2.710938 1.375 1.398438 2.34375 0.296875 C 3.3125 -0.804688 4.675781 -1.554688 6.4375 -1.953125 C 5.800781 -2.242188 5.265625 -2.691406 4.828125 -3.296875 C 4.398438 -3.898438 4.1875 -4.609375 4.1875 -5.421875 C 4.1875 -6.328125 4.425781 -7.117188 4.90625 -7.796875 C 5.394531 -8.484375 6.164062 -9.144531 7.21875 -9.78125 C 5.925781 -10.3125 4.875 -11.210938 4.0625 -12.484375 C 3.25 -13.765625 2.84375 -15.222656 2.84375 -16.859375 C 2.84375 -19.585938 3.660156 -21.691406 5.296875 -23.171875 C 6.941406 -24.660156 9.265625 -25.40625 12.265625 -25.40625 C 13.566406 -25.40625 14.742188 -25.25 15.796875 -24.9375 Z M 4.53125 4.1875 C 4.53125 5.539062 5.097656 6.566406 6.234375 7.265625 C 7.367188 7.960938 9 8.3125 11.125 8.3125 C 14.300781 8.3125 16.648438 7.835938 18.171875 6.890625 C 19.691406 5.941406 20.453125 4.65625 20.453125 3.03125 C 20.453125 1.675781 20.035156 0.738281 19.203125 0.21875 C 18.367188 -0.300781 16.800781 -0.5625 14.5 -0.5625 L 9.96875 -0.5625 C 8.25 -0.5625 6.910156 -0.15625 5.953125 0.65625 C 5.003906 1.476562 4.53125 2.65625 4.53125 4.1875 Z M 6.578125 -16.953125 C 6.578125 -15.210938 7.066406 -13.894531 8.046875 -13 C 9.035156 -12.101562 10.410156 -11.65625 12.171875 -11.65625 C 15.859375 -11.65625 17.703125 -13.441406 17.703125 -17.015625 C 17.703125 -20.765625 15.835938 -22.640625 12.109375 -22.640625 C 10.328125 -22.640625 8.957031 -22.160156 8 -21.203125 C 7.050781 -20.253906 6.578125 -18.835938 6.578125 -16.953125 Z M 6.578125 -16.953125 "/></g></g></g><g fill="#df901a" fill-opacity="1"><g transform="translate(168.936416, 143.477113)"><g><path d="M 15.390625 -25.40625 C 16.492188 -25.40625 17.484375 -25.3125 18.359375 -25.125 L 17.84375 -21.625 C 16.8125 -21.851562 15.898438 -21.96875 15.109375 -21.96875 C 13.085938 -21.96875 11.359375 -21.144531 9.921875 -19.5 C 8.492188 -17.863281 7.78125 -15.820312 7.78125 -13.375 L 7.78125 0 L 4 0 L 4 -24.9375 L 7.125 -24.9375 L 7.5625 -20.328125 L 7.734375 -20.328125 C 8.660156 -21.953125 9.773438 -23.203125 11.078125 -24.078125 C 12.390625 -24.960938 13.828125 -25.40625 15.390625 -25.40625 Z M 15.390625 -25.40625 "/></g></g></g><g fill="#df901a" fill-opacity="1"><g transform="translate(187.960308, 143.477113)"><g><path d="M 19.34375 0 L 18.59375 -3.546875 L 18.40625 -3.546875 C 17.164062 -1.984375 15.925781 -0.925781 14.6875 -0.375 C 13.445312 0.175781 11.90625 0.453125 10.0625 0.453125 C 7.582031 0.453125 5.640625 -0.179688 4.234375 -1.453125 C 2.835938 -2.734375 2.140625 -4.546875 2.140625 -6.890625 C 2.140625 -11.929688 6.164062 -14.570312 14.21875 -14.8125 L 18.453125 -14.953125 L 18.453125 -16.5 C 18.453125 -18.457031 18.03125 -19.898438 17.1875 -20.828125 C 16.351562 -21.765625 15.007812 -22.234375 13.15625 -22.234375 C 11.070312 -22.234375 8.71875 -21.597656 6.09375 -20.328125 L 4.9375 -23.21875 C 6.164062 -23.882812 7.507812 -24.40625 8.96875 -24.78125 C 10.4375 -25.164062 11.90625 -25.359375 13.375 -25.359375 C 16.351562 -25.359375 18.554688 -24.695312 19.984375 -23.375 C 21.421875 -22.050781 22.140625 -19.929688 22.140625 -17.015625 L 22.140625 0 Z M 10.8125 -2.65625 C 13.164062 -2.65625 15.007812 -3.300781 16.34375 -4.59375 C 17.6875 -5.882812 18.359375 -7.691406 18.359375 -10.015625 L 18.359375 -12.265625 L 14.59375 -12.109375 C 11.582031 -12.003906 9.410156 -11.535156 8.078125 -10.703125 C 6.753906 -9.878906 6.09375 -8.59375 6.09375 -6.84375 C 6.09375 -5.476562 6.503906 -4.4375 7.328125 -3.71875 C 8.160156 -3.007812 9.320312 -2.65625 10.8125 -2.65625 Z M 10.8125 -2.65625 "/></g></g></g><g fill="#df901a" fill-opacity="1"><g transform="translate(213.879222, 143.477113)"><g><path d="M 12.0625 -2.65625 C 12.726562 -2.65625 13.367188 -2.703125 13.984375 -2.796875 C 14.609375 -2.898438 15.101562 -3.007812 15.46875 -3.125 L 15.46875 -0.234375 C 15.0625 -0.0351562 14.457031 0.125 13.65625 0.25 C 12.863281 0.382812 12.148438 0.453125 11.515625 0.453125 C 6.691406 0.453125 4.28125 -2.085938 4.28125 -7.171875 L 4.28125 -22 L 0.703125 -22 L 0.703125 -23.828125 L 4.28125 -25.40625 L 5.875 -30.71875 L 8.0625 -30.71875 L 8.0625 -24.9375 L 15.296875 -24.9375 L 15.296875 -22 L 8.0625 -22 L 8.0625 -7.328125 C 8.0625 -5.828125 8.414062 -4.671875 9.125 -3.859375 C 9.84375 -3.054688 10.820312 -2.65625 12.0625 -2.65625 Z M 12.0625 -2.65625 "/></g></g></g><g fill="#df901a" fill-opacity="1"><g transform="translate(230.331702, 143.477113)"><g><path d="M 7.78125 0 L 4 0 L 4 -24.9375 L 7.78125 -24.9375 Z M 3.6875 -31.703125 C 3.6875 -32.566406 3.898438 -33.195312 4.328125 -33.59375 C 4.753906 -34 5.285156 -34.203125 5.921875 -34.203125 C 6.523438 -34.203125 7.046875 -34 7.484375 -33.59375 C 7.921875 -33.1875 8.140625 -32.554688 8.140625 -31.703125 C 8.140625 -30.847656 7.921875 -30.210938 7.484375 -29.796875 C 7.046875 -29.378906 6.523438 -29.171875 5.921875 -29.171875 C 5.285156 -29.171875 4.753906 -29.378906 4.328125 -29.796875 C 3.898438 -30.210938 3.6875 -30.847656 3.6875 -31.703125 Z M 3.6875 -31.703125 "/></g></g></g><g fill="#df901a" fill-opacity="1"><g transform="translate(242.119233, 143.477113)"><g><path d="M 25.53125 -12.5 C 25.53125 -8.425781 24.503906 -5.25 22.453125 -2.96875 C 20.410156 -0.6875 17.582031 0.453125 13.96875 0.453125 C 11.738281 0.453125 9.757812 -0.0664062 8.03125 -1.109375 C 6.300781 -2.160156 4.96875 -3.664062 4.03125 -5.625 C 3.09375 -7.582031 2.625 -9.875 2.625 -12.5 C 2.625 -16.5625 3.640625 -19.726562 5.671875 -22 C 7.703125 -24.269531 10.523438 -25.40625 14.140625 -25.40625 C 17.628906 -25.40625 20.398438 -24.242188 22.453125 -21.921875 C 24.503906 -19.597656 25.53125 -16.457031 25.53125 -12.5 Z M 6.53125 -12.5 C 6.53125 -9.3125 7.164062 -6.878906 8.4375 -5.203125 C 9.71875 -3.535156 11.59375 -2.703125 14.0625 -2.703125 C 16.539062 -2.703125 18.421875 -3.53125 19.703125 -5.1875 C 20.984375 -6.851562 21.625 -9.289062 21.625 -12.5 C 21.625 -15.664062 20.984375 -18.070312 19.703125 -19.71875 C 18.421875 -21.363281 16.523438 -22.1875 14.015625 -22.1875 C 11.546875 -22.1875 9.679688 -21.375 8.421875 -19.75 C 7.160156 -18.125 6.53125 -15.707031 6.53125 -12.5 Z M 6.53125 -12.5 "/></g></g></g><g fill="#df901a" fill-opacity="1"><g transform="translate(270.26822, 143.477113)"><g><path d="M 21.078125 0 L 21.078125 -16.140625 C 21.078125 -18.171875 20.613281 -19.6875 19.6875 -20.6875 C 18.757812 -21.6875 17.3125 -22.1875 15.34375 -22.1875 C 12.726562 -22.1875 10.8125 -21.476562 9.59375 -20.0625 C 8.382812 -18.65625 7.78125 -16.332031 7.78125 -13.09375 L 7.78125 0 L 4 0 L 4 -24.9375 L 7.078125 -24.9375 L 7.6875 -21.53125 L 7.875 -21.53125 C 8.644531 -22.757812 9.726562 -23.710938 11.125 -24.390625 C 12.519531 -25.066406 14.078125 -25.40625 15.796875 -25.40625 C 18.796875 -25.40625 21.054688 -24.675781 22.578125 -23.21875 C 24.097656 -21.769531 24.859375 -19.453125 24.859375 -16.265625 L 24.859375 0 Z M 21.078125 0 "/></g></g></g><g fill="#6d38d1" fill-opacity="1"><g transform="translate(87.683509, 197.779687)"><g><path d="M 31.8125 -16.96875 C 31.8125 -11.488281 30.25 -7.289062 27.125 -4.375 C 24.007812 -1.457031 19.507812 0 13.625 0 L 4.1875 0 L 4.1875 -33.296875 L 14.640625 -33.296875 C 20.078125 -33.296875 24.296875 -31.859375 27.296875 -28.984375 C 30.304688 -26.117188 31.8125 -22.113281 31.8125 -16.96875 Z M 24.484375 -16.78125 C 24.484375 -23.9375 21.328125 -27.515625 15.015625 -27.515625 L 11.25 -27.515625 L 11.25 -5.828125 L 14.28125 -5.828125 C 21.082031 -5.828125 24.484375 -9.476562 24.484375 -16.78125 Z M 24.484375 -16.78125 "/></g></g></g><g fill="#df901a" fill-opacity="1"><g transform="translate(122.199193, 197.779687)"><g><path d="M 19.359375 0 L 18.609375 -3.546875 L 18.421875 -3.546875 C 17.179688 -1.984375 15.941406 -0.925781 14.703125 -0.375 C 13.460938 0.175781 11.914062 0.453125 10.0625 0.453125 C 7.59375 0.453125 5.65625 -0.179688 4.25 -1.453125 C 2.84375 -2.734375 2.140625 -4.550781 2.140625 -6.90625 C 2.140625 -11.945312 6.171875 -14.585938 14.234375 -14.828125 L 18.46875 -14.96875 L 18.46875 -16.515625 C 18.46875 -18.472656 18.046875 -19.914062 17.203125 -20.84375 C 16.359375 -21.78125 15.007812 -22.25 13.15625 -22.25 C 11.082031 -22.25 8.734375 -21.613281 6.109375 -20.34375 L 4.9375 -23.234375 C 6.164062 -23.898438 7.515625 -24.421875 8.984375 -24.796875 C 10.453125 -25.179688 11.921875 -25.375 13.390625 -25.375 C 16.367188 -25.375 18.570312 -24.710938 20 -23.390625 C 21.4375 -22.066406 22.15625 -19.945312 22.15625 -17.03125 L 22.15625 0 Z M 10.8125 -2.671875 C 13.164062 -2.671875 15.015625 -3.3125 16.359375 -4.59375 C 17.703125 -5.882812 18.375 -7.691406 18.375 -10.015625 L 18.375 -12.28125 L 14.59375 -12.109375 C 11.59375 -12.003906 9.425781 -11.535156 8.09375 -10.703125 C 6.769531 -9.878906 6.109375 -8.597656 6.109375 -6.859375 C 6.109375 -5.492188 6.519531 -4.453125 7.34375 -3.734375 C 8.164062 -3.023438 9.320312 -2.671875 10.8125 -2.671875 Z M 10.8125 -2.671875 "/></g></g></g><g fill="#df901a" fill-opacity="1"><g transform="translate(148.135479, 197.779687)"><g><path d="M 12.0625 -2.671875 C 12.738281 -2.671875 13.382812 -2.71875 14 -2.8125 C 14.625 -2.90625 15.117188 -3.007812 15.484375 -3.125 L 15.484375 -0.234375 C 15.078125 -0.0351562 14.472656 0.125 13.671875 0.25 C 12.878906 0.382812 12.164062 0.453125 11.53125 0.453125 C 6.695312 0.453125 4.28125 -2.085938 4.28125 -7.171875 L 4.28125 -22.015625 L 0.703125 -22.015625 L 0.703125 -23.84375 L 4.28125 -25.421875 L 5.875 -30.75 L 8.0625 -30.75 L 8.0625 -24.953125 L 15.296875 -24.953125 L 15.296875 -22.015625 L 8.0625 -22.015625 L 8.0625 -7.328125 C 8.0625 -5.828125 8.414062 -4.675781 9.125 -3.875 C 9.84375 -3.070312 10.820312 -2.671875 12.0625 -2.671875 Z M 12.0625 -2.671875 "/></g></g></g><g fill="#df901a" fill-opacity="1"><g transform="translate(164.598987, 197.779687)"><g><path d="M 19.359375 0 L 18.609375 -3.546875 L 18.421875 -3.546875 C 17.179688 -1.984375 15.941406 -0.925781 14.703125 -0.375 C 13.460938 0.175781 11.914062 0.453125 10.0625 0.453125 C 7.59375 0.453125 5.65625 -0.179688 4.25 -1.453125 C 2.84375 -2.734375 2.140625 -4.550781 2.140625 -6.90625 C 2.140625 -11.945312 6.171875 -14.585938 14.234375 -14.828125 L 18.46875 -14.96875 L 18.46875 -16.515625 C 18.46875 -18.472656 18.046875 -19.914062 17.203125 -20.84375 C 16.359375 -21.78125 15.007812 -22.25 13.15625 -22.25 C 11.082031 -22.25 8.734375 -21.613281 6.109375 -20.34375 L 4.9375 -23.234375 C 6.164062 -23.898438 7.515625 -24.421875 8.984375 -24.796875 C 10.453125 -25.179688 11.921875 -25.375 13.390625 -25.375 C 16.367188 -25.375 18.570312 -24.710938 20 -23.390625 C 21.4375 -22.066406 22.15625 -19.945312 22.15625 -17.03125 L 22.15625 0 Z M 10.8125 -2.671875 C 13.164062 -2.671875 15.015625 -3.3125 16.359375 -4.59375 C 17.703125 -5.882812 18.375 -7.691406 18.375 -10.015625 L 18.375 -12.28125 L 14.59375 -12.109375 C 11.59375 -12.003906 9.425781 -11.535156 8.09375 -10.703125 C 6.769531 -9.878906 6.109375 -8.597656 6.109375 -6.859375 C 6.109375 -5.492188 6.519531 -4.453125 7.34375 -3.734375 C 8.164062 -3.023438 9.320312 -2.671875 10.8125 -2.671875 Z M 10.8125 -2.671875 "/></g></g></g><g fill="#42e84e" fill-opacity="1"><g transform="translate(87.714745, 253.421305)"><g><path d="M 23.1875 -33.296875 L 30.3125 -33.296875 L 19 0 L 11.296875 0 L 0 -33.296875 L 7.125 -33.296875 L 13.390625 -13.484375 C 13.742188 -12.316406 14.101562 -10.953125 14.46875 -9.390625 C 14.84375 -7.835938 15.078125 -6.757812 15.171875 -6.15625 C 15.335938 -7.550781 15.90625 -9.992188 16.875 -13.484375 Z M 23.1875 -33.296875 "/></g></g></g><g fill="#df901a" fill-opacity="1"><g transform="translate(118.013581, 253.421305)"><g><path d="M 7.78125 0 L 4.015625 0 L 4.015625 -24.953125 L 7.78125 -24.953125 Z M 3.6875 -31.71875 C 3.6875 -32.582031 3.898438 -33.21875 4.328125 -33.625 C 4.753906 -34.03125 5.285156 -34.234375 5.921875 -34.234375 C 6.523438 -34.234375 7.046875 -34.023438 7.484375 -33.609375 C 7.929688 -33.203125 8.15625 -32.570312 8.15625 -31.71875 C 8.15625 -30.875 7.929688 -30.242188 7.484375 -29.828125 C 7.046875 -29.410156 6.523438 -29.203125 5.921875 -29.203125 C 5.285156 -29.203125 4.753906 -29.410156 4.328125 -29.828125 C 3.898438 -30.242188 3.6875 -30.875 3.6875 -31.71875 Z M 3.6875 -31.71875 "/></g></g></g><g fill="#df901a" fill-opacity="1"><g transform="translate(129.809012, 253.421305)"><g><path d="M 20.109375 -6.8125 C 20.109375 -4.488281 19.242188 -2.695312 17.515625 -1.4375 C 15.785156 -0.175781 13.351562 0.453125 10.21875 0.453125 C 6.914062 0.453125 4.335938 -0.0664062 2.484375 -1.109375 L 2.484375 -4.625 C 3.679688 -4.019531 4.96875 -3.539062 6.34375 -3.1875 C 7.71875 -2.84375 9.039062 -2.671875 10.3125 -2.671875 C 12.289062 -2.671875 13.8125 -2.984375 14.875 -3.609375 C 15.9375 -4.242188 16.46875 -5.203125 16.46875 -6.484375 C 16.46875 -7.460938 16.046875 -8.296875 15.203125 -8.984375 C 14.359375 -9.671875 12.710938 -10.488281 10.265625 -11.4375 C 7.941406 -12.300781 6.289062 -13.054688 5.3125 -13.703125 C 4.332031 -14.347656 3.601562 -15.078125 3.125 -15.890625 C 2.644531 -16.710938 2.40625 -17.691406 2.40625 -18.828125 C 2.40625 -20.867188 3.234375 -22.476562 4.890625 -23.65625 C 6.546875 -24.832031 8.816406 -25.421875 11.703125 -25.421875 C 14.390625 -25.421875 17.015625 -24.875 19.578125 -23.78125 L 18.234375 -20.703125 C 15.734375 -21.734375 13.46875 -22.25 11.4375 -22.25 C 9.644531 -22.25 8.289062 -21.96875 7.375 -21.40625 C 6.46875 -20.84375 6.015625 -20.066406 6.015625 -19.078125 C 6.015625 -18.410156 6.179688 -17.84375 6.515625 -17.375 C 6.859375 -16.90625 7.410156 -16.457031 8.171875 -16.03125 C 8.929688 -15.601562 10.390625 -14.988281 12.546875 -14.1875 C 15.503906 -13.113281 17.503906 -12.03125 18.546875 -10.9375 C 19.585938 -9.84375 20.109375 -8.46875 20.109375 -6.8125 Z M 20.109375 -6.8125 "/></g></g></g><g fill="#df901a" fill-opacity="1"><g transform="translate(152.05638, 253.421305)"><g><path d="M 7.5625 -24.953125 L 7.5625 -8.765625 C 7.5625 -6.734375 8.023438 -5.210938 8.953125 -4.203125 C 9.878906 -3.203125 11.328125 -2.703125 13.296875 -2.703125 C 15.910156 -2.703125 17.820312 -3.414062 19.03125 -4.84375 C 20.238281 -6.269531 20.84375 -8.601562 20.84375 -11.84375 L 20.84375 -24.953125 L 24.625 -24.953125 L 24.625 0 L 21.5 0 L 20.953125 -3.34375 L 20.75 -3.34375 C 19.96875 -2.113281 18.890625 -1.171875 17.515625 -0.515625 C 16.148438 0.128906 14.585938 0.453125 12.828125 0.453125 C 9.785156 0.453125 7.507812 -0.265625 6 -1.703125 C 4.488281 -3.148438 3.734375 -5.457031 3.734375 -8.625 L 3.734375 -24.953125 Z M 7.5625 -24.953125 "/></g></g></g><g fill="#df901a" fill-opacity="1"><g transform="translate(180.679656, 253.421305)"><g><path d="M 19.359375 0 L 18.609375 -3.546875 L 18.421875 -3.546875 C 17.179688 -1.984375 15.941406 -0.925781 14.703125 -0.375 C 13.460938 0.175781 11.914062 0.453125 10.0625 0.453125 C 7.59375 0.453125 5.65625 -0.179688 4.25 -1.453125 C 2.84375 -2.734375 2.140625 -4.550781 2.140625 -6.90625 C 2.140625 -11.945312 6.171875 -14.585938 14.234375 -14.828125 L 18.46875 -14.96875 L 18.46875 -16.515625 C 18.46875 -18.472656 18.046875 -19.914062 17.203125 -20.84375 C 16.359375 -21.78125 15.007812 -22.25 13.15625 -22.25 C 11.082031 -22.25 8.734375 -21.613281 6.109375 -20.34375 L 4.9375 -23.234375 C 6.164062 -23.898438 7.515625 -24.421875 8.984375 -24.796875 C 10.453125 -25.179688 11.921875 -25.375 13.390625 -25.375 C 16.367188 -25.375 18.570312 -24.710938 20 -23.390625 C 21.4375 -22.066406 22.15625 -19.945312 22.15625 -17.03125 L 22.15625 0 Z M 10.8125 -2.671875 C 13.164062 -2.671875 15.015625 -3.3125 16.359375 -4.59375 C 17.703125 -5.882812 18.375 -7.691406 18.375 -10.015625 L 18.375 -12.28125 L 14.59375 -12.109375 C 11.59375 -12.003906 9.425781 -11.535156 8.09375 -10.703125 C 6.769531 -9.878906 6.109375 -8.597656 6.109375 -6.859375 C 6.109375 -5.492188 6.519531 -4.453125 7.34375 -3.734375 C 8.164062 -3.023438 9.320312 -2.671875 10.8125 -2.671875 Z M 10.8125 -2.671875 "/></g></g></g><g fill="#df901a" fill-opacity="1"><g transform="translate(206.615943, 253.421305)"><g><path d="M 7.78125 0 L 4.015625 0 L 4.015625 -35.4375 L 7.78125 -35.4375 Z M 7.78125 0 "/></g></g></g><g fill="#df901a" fill-opacity="1"><g transform="translate(218.411374, 253.421305)"><g><path d="M 7.78125 0 L 4.015625 0 L 4.015625 -24.953125 L 7.78125 -24.953125 Z M 3.6875 -31.71875 C 3.6875 -32.582031 3.898438 -33.21875 4.328125 -33.625 C 4.753906 -34.03125 5.285156 -34.234375 5.921875 -34.234375 C 6.523438 -34.234375 7.046875 -34.023438 7.484375 -33.609375 C 7.929688 -33.203125 8.15625 -32.570312 8.15625 -31.71875 C 8.15625 -30.875 7.929688 -30.242188 7.484375 -29.828125 C 7.046875 -29.410156 6.523438 -29.203125 5.921875 -29.203125 C 5.285156 -29.203125 4.753906 -29.410156 4.328125 -29.828125 C 3.898438 -30.242188 3.6875 -30.875 3.6875 -31.71875 Z M 3.6875 -31.71875 "/></g></g></g><g fill="#df901a" fill-opacity="1"><g transform="translate(230.206805, 253.421305)"><g><path d="M 19.96875 0 L 1.875 0 L 1.875 -2.578125 L 15.484375 -22.015625 L 2.703125 -22.015625 L 2.703125 -24.953125 L 19.625 -24.953125 L 19.625 -22.015625 L 6.1875 -2.9375 L 19.96875 -2.9375 Z M 19.96875 0 "/></g></g></g><g fill="#df901a" fill-opacity="1"><g transform="translate(252.021521, 253.421305)"><g><path d="M 14.546875 0.453125 C 10.859375 0.453125 7.945312 -0.664062 5.8125 -2.90625 C 3.6875 -5.15625 2.625 -8.28125 2.625 -12.28125 C 2.625 -16.300781 3.613281 -19.492188 5.59375 -21.859375 C 7.570312 -24.234375 10.234375 -25.421875 13.578125 -25.421875 C 16.703125 -25.421875 19.175781 -24.390625 21 -22.328125 C 22.820312 -20.273438 23.734375 -17.5625 23.734375 -14.1875 L 23.734375 -11.796875 L 6.53125 -11.796875 C 6.613281 -8.867188 7.351562 -6.644531 8.75 -5.125 C 10.15625 -3.601562 12.132812 -2.84375 14.6875 -2.84375 C 17.375 -2.84375 20.03125 -3.40625 22.65625 -4.53125 L 22.65625 -1.15625 C 21.320312 -0.582031 20.054688 -0.171875 18.859375 0.078125 C 17.671875 0.328125 16.234375 0.453125 14.546875 0.453125 Z M 13.53125 -22.25 C 11.519531 -22.25 9.921875 -21.59375 8.734375 -20.28125 C 7.546875 -18.976562 6.84375 -17.175781 6.625 -14.875 L 19.671875 -14.875 C 19.671875 -17.257812 19.140625 -19.082031 18.078125 -20.34375 C 17.015625 -21.613281 15.5 -22.25 13.53125 -22.25 Z M 13.53125 -22.25 "/></g></g></g><g fill="#df901a" fill-opacity="1"><g transform="translate(278.185518, 253.421305)"><g><path d="M 15.390625 -25.421875 C 16.503906 -25.421875 17.5 -25.328125 18.375 -25.140625 L 17.859375 -21.640625 C 16.828125 -21.867188 15.914062 -21.984375 15.125 -21.984375 C 13.101562 -21.984375 11.375 -21.160156 9.9375 -19.515625 C 8.5 -17.878906 7.78125 -15.835938 7.78125 -13.390625 L 7.78125 0 L 4.015625 0 L 4.015625 -24.953125 L 7.125 -24.953125 L 7.5625 -20.34375 L 7.75 -20.34375 C 8.664062 -21.96875 9.773438 -23.21875 11.078125 -24.09375 C 12.390625 -24.976562 13.828125 -25.421875 15.390625 -25.421875 Z M 15.390625 -25.421875 "/></g></g></g></svg>