<svg xmlns="http://www.w3.org/2000/svg" xmlns:xlink="http://www.w3.org/1999/xlink" width="600" zoomAndPan="magnify" viewBox="0 0 450 374.999991" height="500" preserveAspectRatio="xMidYMid meet" version="1.0"><defs><g/></defs><g fill="#e40606" fill-opacity="1"><g transform="translate(88.43351, 134.79781)"><g><path d="M 24.234375 0 L 13.609375 -34.625 L 13.34375 -34.625 C 13.71875 -27.582031 13.90625 -22.882812 13.90625 -20.53125 L 13.90625 0 L 5.546875 0 L 5.546875 -44.125 L 18.296875 -44.125 L 28.734375 -10.375 L 28.921875 -10.375 L 39.984375 -44.125 L 52.734375 -44.125 L 52.734375 0 L 44 0 L 44 -20.890625 C 44 -21.867188 44.015625 -23.003906 44.046875 -24.296875 C 44.078125 -25.585938 44.210938 -29.007812 44.453125 -34.5625 L 44.1875 -34.5625 L 32.8125 0 Z M 24.234375 0 "/></g></g></g><g fill="#df901a" fill-opacity="1"><g transform="translate(146.695774, 134.79781)"><g><path d="M 10.328125 0 L 5.3125 0 L 5.3125 -33.078125 L 10.328125 -33.078125 Z M 4.890625 -42.046875 C 4.890625 -43.191406 5.171875 -44.03125 5.734375 -44.5625 C 6.296875 -45.09375 7 -45.359375 7.84375 -45.359375 C 8.644531 -45.359375 9.335938 -45.085938 9.921875 -44.546875 C 10.515625 -44.003906 10.8125 -43.171875 10.8125 -42.046875 C 10.8125 -40.921875 10.515625 -40.078125 9.921875 -39.515625 C 9.335938 -38.960938 8.644531 -38.6875 7.84375 -38.6875 C 7 -38.6875 6.296875 -38.960938 5.734375 -39.515625 C 5.171875 -40.078125 4.890625 -40.921875 4.890625 -42.046875 Z M 4.890625 -42.046875 "/></g></g></g><g fill="#df901a" fill-opacity="1"><g transform="translate(162.327835, 134.79781)"><g><path d="M 32.390625 -33.078125 L 32.390625 -29.90625 L 26.265625 -29.1875 C 26.828125 -28.476562 27.328125 -27.554688 27.765625 -26.421875 C 28.210938 -25.285156 28.4375 -24.003906 28.4375 -22.578125 C 28.4375 -19.335938 27.328125 -16.75 25.109375 -14.8125 C 22.898438 -12.882812 19.863281 -11.921875 16 -11.921875 C 15.007812 -11.921875 14.082031 -12 13.21875 -12.15625 C 11.082031 -11.03125 10.015625 -9.613281 10.015625 -7.90625 C 10.015625 -7 10.382812 -6.328125 11.125 -5.890625 C 11.875 -5.460938 13.15625 -5.25 14.96875 -5.25 L 20.828125 -5.25 C 24.410156 -5.25 27.160156 -4.492188 29.078125 -2.984375 C 31.003906 -1.472656 31.96875 0.71875 31.96875 3.59375 C 31.96875 7.25 30.5 10.035156 27.5625 11.953125 C 24.625 13.878906 20.335938 14.84375 14.703125 14.84375 C 10.367188 14.84375 7.03125 14.035156 4.6875 12.421875 C 2.34375 10.816406 1.171875 8.546875 1.171875 5.609375 C 1.171875 3.597656 1.816406 1.859375 3.109375 0.390625 C 4.398438 -1.078125 6.210938 -2.070312 8.546875 -2.59375 C 7.703125 -2.976562 6.988281 -3.570312 6.40625 -4.375 C 5.832031 -5.175781 5.546875 -6.113281 5.546875 -7.1875 C 5.546875 -8.394531 5.867188 -9.445312 6.515625 -10.34375 C 7.160156 -11.25 8.175781 -12.128906 9.5625 -12.984375 C 7.851562 -13.679688 6.457031 -14.875 5.375 -16.5625 C 4.300781 -18.257812 3.765625 -20.191406 3.765625 -22.359375 C 3.765625 -25.984375 4.851562 -28.773438 7.03125 -30.734375 C 9.207031 -32.703125 12.285156 -33.6875 16.265625 -33.6875 C 17.992188 -33.6875 19.554688 -33.484375 20.953125 -33.078125 Z M 6 5.546875 C 6 7.335938 6.753906 8.695312 8.265625 9.625 C 9.773438 10.550781 11.941406 11.015625 14.765625 11.015625 C 18.960938 11.015625 22.070312 10.382812 24.09375 9.125 C 26.125 7.875 27.140625 6.171875 27.140625 4.015625 C 27.140625 2.222656 26.582031 0.976562 25.46875 0.28125 C 24.363281 -0.40625 22.28125 -0.75 19.21875 -0.75 L 13.21875 -0.75 C 10.945312 -0.75 9.175781 -0.207031 7.90625 0.875 C 6.632812 1.957031 6 3.515625 6 5.546875 Z M 8.71875 -22.484375 C 8.71875 -20.171875 9.367188 -18.421875 10.671875 -17.234375 C 11.984375 -16.046875 13.804688 -15.453125 16.140625 -15.453125 C 21.035156 -15.453125 23.484375 -17.828125 23.484375 -22.578125 C 23.484375 -27.546875 21.007812 -30.03125 16.0625 -30.03125 C 13.707031 -30.03125 11.894531 -29.394531 10.625 -28.125 C 9.351562 -26.863281 8.71875 -24.984375 8.71875 -22.484375 Z M 8.71875 -22.484375 "/></g></g></g><g fill="#df901a" fill-opacity="1"><g transform="translate(196.187241, 134.79781)"><g><path d="M 20.40625 -33.6875 C 21.875 -33.6875 23.191406 -33.566406 24.359375 -33.328125 L 23.65625 -28.671875 C 22.289062 -28.972656 21.085938 -29.125 20.046875 -29.125 C 17.367188 -29.125 15.078125 -28.035156 13.171875 -25.859375 C 11.273438 -23.691406 10.328125 -20.988281 10.328125 -17.75 L 10.328125 0 L 5.3125 0 L 5.3125 -33.078125 L 9.453125 -33.078125 L 10.015625 -26.953125 L 10.265625 -26.953125 C 11.492188 -29.109375 12.972656 -30.769531 14.703125 -31.9375 C 16.429688 -33.101562 18.332031 -33.6875 20.40625 -33.6875 Z M 20.40625 -33.6875 "/></g></g></g><g fill="#df901a" fill-opacity="1"><g transform="translate(221.415819, 134.79781)"><g><path d="M 25.65625 0 L 24.65625 -4.703125 L 24.421875 -4.703125 C 22.765625 -2.628906 21.113281 -1.222656 19.46875 -0.484375 C 17.832031 0.242188 15.789062 0.609375 13.34375 0.609375 C 10.0625 0.609375 7.488281 -0.234375 5.625 -1.921875 C 3.769531 -3.617188 2.84375 -6.023438 2.84375 -9.140625 C 2.84375 -15.828125 8.179688 -19.328125 18.859375 -19.640625 L 24.484375 -19.828125 L 24.484375 -21.875 C 24.484375 -24.476562 23.921875 -26.394531 22.796875 -27.625 C 21.679688 -28.863281 19.894531 -29.484375 17.4375 -29.484375 C 14.6875 -29.484375 11.570312 -28.640625 8.09375 -26.953125 L 6.546875 -30.78125 C 8.179688 -31.664062 9.96875 -32.359375 11.90625 -32.859375 C 13.84375 -33.367188 15.789062 -33.625 17.75 -33.625 C 21.6875 -33.625 24.601562 -32.75 26.5 -31 C 28.40625 -29.25 29.359375 -26.441406 29.359375 -22.578125 L 29.359375 0 Z M 14.34375 -3.53125 C 17.457031 -3.53125 19.90625 -4.382812 21.6875 -6.09375 C 23.46875 -7.800781 24.359375 -10.195312 24.359375 -13.28125 L 24.359375 -16.265625 L 19.34375 -16.0625 C 15.363281 -15.914062 12.492188 -15.296875 10.734375 -14.203125 C 8.972656 -13.109375 8.09375 -11.398438 8.09375 -9.078125 C 8.09375 -7.273438 8.640625 -5.898438 9.734375 -4.953125 C 10.828125 -4.003906 12.363281 -3.53125 14.34375 -3.53125 Z M 14.34375 -3.53125 "/></g></g></g><g fill="#df901a" fill-opacity="1"><g transform="translate(255.788247, 134.79781)"><g><path d="M 16 -3.53125 C 16.882812 -3.53125 17.738281 -3.59375 18.5625 -3.71875 C 19.382812 -3.851562 20.039062 -3.992188 20.53125 -4.140625 L 20.53125 -0.296875 C 19.976562 -0.0351562 19.175781 0.175781 18.125 0.34375 C 17.070312 0.519531 16.117188 0.609375 15.265625 0.609375 C 8.867188 0.609375 5.671875 -2.757812 5.671875 -9.5 L 5.671875 -29.1875 L 0.9375 -29.1875 L 0.9375 -31.59375 L 5.671875 -33.6875 L 7.78125 -40.75 L 10.6875 -40.75 L 10.6875 -33.078125 L 20.28125 -33.078125 L 20.28125 -29.1875 L 10.6875 -29.1875 L 10.6875 -9.71875 C 10.6875 -7.726562 11.15625 -6.195312 12.09375 -5.125 C 13.039062 -4.0625 14.34375 -3.53125 16 -3.53125 Z M 16 -3.53125 "/></g></g></g><g fill="#df901a" fill-opacity="1"><g transform="translate(277.606742, 134.79781)"><g><path d="M 10.328125 0 L 5.3125 0 L 5.3125 -33.078125 L 10.328125 -33.078125 Z M 4.890625 -42.046875 C 4.890625 -43.191406 5.171875 -44.03125 5.734375 -44.5625 C 6.296875 -45.09375 7 -45.359375 7.84375 -45.359375 C 8.644531 -45.359375 9.335938 -45.085938 9.921875 -44.546875 C 10.515625 -44.003906 10.8125 -43.171875 10.8125 -42.046875 C 10.8125 -40.921875 10.515625 -40.078125 9.921875 -39.515625 C 9.335938 -38.960938 8.644531 -38.6875 7.84375 -38.6875 C 7 -38.6875 6.296875 -38.960938 5.734375 -39.515625 C 5.171875 -40.078125 4.890625 -40.921875 4.890625 -42.046875 Z M 4.890625 -42.046875 "/></g></g></g><g fill="#df901a" fill-opacity="1"><g transform="translate(293.238803, 134.79781)"><g><path d="M 33.859375 -16.5625 C 33.859375 -11.175781 32.5 -6.96875 29.78125 -3.9375 C 27.070312 -0.90625 23.320312 0.609375 18.53125 0.609375 C 15.570312 0.609375 12.945312 -0.0820312 10.65625 -1.46875 C 8.363281 -2.863281 6.59375 -4.859375 5.34375 -7.453125 C 4.09375 -10.046875 3.46875 -13.082031 3.46875 -16.5625 C 3.46875 -21.957031 4.816406 -26.160156 7.515625 -29.171875 C 10.210938 -32.179688 13.957031 -33.6875 18.75 -33.6875 C 23.375 -33.6875 27.046875 -32.144531 29.765625 -29.0625 C 32.492188 -25.988281 33.859375 -21.820312 33.859375 -16.5625 Z M 8.65625 -16.5625 C 8.65625 -12.34375 9.5 -9.125 11.1875 -6.90625 C 12.882812 -4.695312 15.375 -3.59375 18.65625 -3.59375 C 21.9375 -3.59375 24.425781 -4.691406 26.125 -6.890625 C 27.820312 -9.097656 28.671875 -12.320312 28.671875 -16.5625 C 28.671875 -20.769531 27.820312 -23.960938 26.125 -26.140625 C 24.425781 -28.328125 21.914062 -29.421875 18.59375 -29.421875 C 15.3125 -29.421875 12.832031 -28.34375 11.15625 -26.1875 C 9.488281 -24.039062 8.65625 -20.832031 8.65625 -16.5625 Z M 8.65625 -16.5625 "/></g></g></g><g fill="#df901a" fill-opacity="1"><g transform="translate(330.568648, 134.79781)"><g><path d="M 27.953125 0 L 27.953125 -21.40625 C 27.953125 -24.09375 27.335938 -26.097656 26.109375 -27.421875 C 24.878906 -28.753906 22.957031 -29.421875 20.34375 -29.421875 C 16.882812 -29.421875 14.347656 -28.484375 12.734375 -26.609375 C 11.128906 -24.742188 10.328125 -21.660156 10.328125 -17.359375 L 10.328125 0 L 5.3125 0 L 5.3125 -33.078125 L 9.390625 -33.078125 L 10.203125 -28.546875 L 10.4375 -28.546875 C 11.46875 -30.179688 12.90625 -31.445312 14.75 -32.34375 C 16.601562 -33.238281 18.671875 -33.6875 20.953125 -33.6875 C 24.929688 -33.6875 27.925781 -32.722656 29.9375 -30.796875 C 31.945312 -28.878906 32.953125 -25.804688 32.953125 -21.578125 L 32.953125 0 Z M 27.953125 0 "/></g></g></g><g fill="#6d38d1" fill-opacity="1"><g transform="translate(88.43351, 206.811325)"><g><path d="M 42.1875 -22.5 C 42.1875 -15.226562 40.117188 -9.660156 35.984375 -5.796875 C 31.847656 -1.929688 25.875 0 18.0625 0 L 5.5625 0 L 5.5625 -44.140625 L 19.421875 -44.140625 C 26.628906 -44.140625 32.222656 -42.238281 36.203125 -38.4375 C 40.191406 -34.632812 42.1875 -29.320312 42.1875 -22.5 Z M 32.46875 -22.25 C 32.46875 -31.738281 28.28125 -36.484375 19.90625 -36.484375 L 14.921875 -36.484375 L 14.921875 -7.734375 L 18.9375 -7.734375 C 27.957031 -7.734375 32.46875 -12.570312 32.46875 -22.25 Z M 32.46875 -22.25 "/></g></g></g><g fill="#df901a" fill-opacity="1"><g transform="translate(134.206565, 206.811325)"><g><path d="M 25.671875 0 L 24.671875 -4.703125 L 24.421875 -4.703125 C 22.773438 -2.628906 21.128906 -1.222656 19.484375 -0.484375 C 17.847656 0.242188 15.800781 0.609375 13.34375 0.609375 C 10.0625 0.609375 7.488281 -0.234375 5.625 -1.921875 C 3.769531 -3.617188 2.84375 -6.03125 2.84375 -9.15625 C 2.84375 -15.832031 8.1875 -19.332031 18.875 -19.65625 L 24.484375 -19.84375 L 24.484375 -21.890625 C 24.484375 -24.484375 23.925781 -26.398438 22.8125 -27.640625 C 21.695312 -28.878906 19.910156 -29.5 17.453125 -29.5 C 14.691406 -29.5 11.570312 -28.65625 8.09375 -26.96875 L 6.546875 -30.796875 C 8.179688 -31.679688 9.96875 -32.375 11.90625 -32.875 C 13.851562 -33.382812 15.800781 -33.640625 17.75 -33.640625 C 21.695312 -33.640625 24.617188 -32.765625 26.515625 -31.015625 C 28.421875 -29.265625 29.375 -26.457031 29.375 -22.59375 L 29.375 0 Z M 14.34375 -3.53125 C 17.46875 -3.53125 19.921875 -4.382812 21.703125 -6.09375 C 23.484375 -7.8125 24.375 -10.207031 24.375 -13.28125 L 24.375 -16.28125 L 19.359375 -16.0625 C 15.367188 -15.925781 12.492188 -15.304688 10.734375 -14.203125 C 8.972656 -13.109375 8.09375 -11.40625 8.09375 -9.09375 C 8.09375 -7.28125 8.640625 -5.898438 9.734375 -4.953125 C 10.835938 -4.003906 12.375 -3.53125 14.34375 -3.53125 Z M 14.34375 -3.53125 "/></g></g></g><g fill="#df901a" fill-opacity="1"><g transform="translate(168.602031, 206.811325)"><g><path d="M 16 -3.53125 C 16.882812 -3.53125 17.738281 -3.59375 18.5625 -3.71875 C 19.394531 -3.851562 20.050781 -3.992188 20.53125 -4.140625 L 20.53125 -0.296875 C 19.988281 -0.0351562 19.1875 0.175781 18.125 0.34375 C 17.070312 0.519531 16.125 0.609375 15.28125 0.609375 C 8.875 0.609375 5.671875 -2.765625 5.671875 -9.515625 L 5.671875 -29.203125 L 0.9375 -29.203125 L 0.9375 -31.609375 L 5.671875 -33.703125 L 7.796875 -40.765625 L 10.6875 -40.765625 L 10.6875 -33.09375 L 20.296875 -33.09375 L 20.296875 -29.203125 L 10.6875 -29.203125 L 10.6875 -9.71875 C 10.6875 -7.726562 11.160156 -6.195312 12.109375 -5.125 C 13.054688 -4.0625 14.351562 -3.53125 16 -3.53125 Z M 16 -3.53125 "/></g></g></g><g fill="#df901a" fill-opacity="1"><g transform="translate(190.435149, 206.811325)"><g><path d="M 25.671875 0 L 24.671875 -4.703125 L 24.421875 -4.703125 C 22.773438 -2.628906 21.128906 -1.222656 19.484375 -0.484375 C 17.847656 0.242188 15.800781 0.609375 13.34375 0.609375 C 10.0625 0.609375 7.488281 -0.234375 5.625 -1.921875 C 3.769531 -3.617188 2.84375 -6.03125 2.84375 -9.15625 C 2.84375 -15.832031 8.1875 -19.332031 18.875 -19.65625 L 24.484375 -19.84375 L 24.484375 -21.890625 C 24.484375 -24.484375 23.925781 -26.398438 22.8125 -27.640625 C 21.695312 -28.878906 19.910156 -29.5 17.453125 -29.5 C 14.691406 -29.5 11.570312 -28.65625 8.09375 -26.96875 L 6.546875 -30.796875 C 8.179688 -31.679688 9.96875 -32.375 11.90625 -32.875 C 13.851562 -33.382812 15.800781 -33.640625 17.75 -33.640625 C 21.695312 -33.640625 24.617188 -32.765625 26.515625 -31.015625 C 28.421875 -29.265625 29.375 -26.457031 29.375 -22.59375 L 29.375 0 Z M 14.34375 -3.53125 C 17.46875 -3.53125 19.921875 -4.382812 21.703125 -6.09375 C 23.484375 -7.8125 24.375 -10.207031 24.375 -13.28125 L 24.375 -16.28125 L 19.359375 -16.0625 C 15.367188 -15.925781 12.492188 -15.304688 10.734375 -14.203125 C 8.972656 -13.109375 8.09375 -11.40625 8.09375 -9.09375 C 8.09375 -7.28125 8.640625 -5.898438 9.734375 -4.953125 C 10.835938 -4.003906 12.375 -3.53125 14.34375 -3.53125 Z M 14.34375 -3.53125 "/></g></g></g><g fill="#42e84e" fill-opacity="1"><g transform="translate(88.474934, 280.600597)"><g><path d="M 30.734375 -44.140625 L 40.1875 -44.140625 L 25.1875 0 L 14.984375 0 L 0 -44.140625 L 9.453125 -44.140625 L 17.75 -17.875 C 18.21875 -16.320312 18.695312 -14.515625 19.1875 -12.453125 C 19.6875 -10.390625 19.992188 -8.957031 20.109375 -8.15625 C 20.328125 -10.007812 21.082031 -13.25 22.375 -17.875 Z M 30.734375 -44.140625 "/></g></g></g><g fill="#df901a" fill-opacity="1"><g transform="translate(128.655805, 280.600597)"><g><path d="M 10.328125 0 L 5.3125 0 L 5.3125 -33.09375 L 10.328125 -33.09375 Z M 4.890625 -42.0625 C 4.890625 -43.207031 5.171875 -44.046875 5.734375 -44.578125 C 6.296875 -45.117188 7 -45.390625 7.84375 -45.390625 C 8.65625 -45.390625 9.351562 -45.113281 9.9375 -44.5625 C 10.519531 -44.019531 10.8125 -43.1875 10.8125 -42.0625 C 10.8125 -40.9375 10.519531 -40.097656 9.9375 -39.546875 C 9.351562 -38.992188 8.65625 -38.71875 7.84375 -38.71875 C 7 -38.71875 6.296875 -38.992188 5.734375 -39.546875 C 5.171875 -40.097656 4.890625 -40.9375 4.890625 -42.0625 Z M 4.890625 -42.0625 "/></g></g></g><g fill="#df901a" fill-opacity="1"><g transform="translate(144.298343, 280.600597)"><g><path d="M 26.671875 -9.03125 C 26.671875 -5.945312 25.519531 -3.566406 23.21875 -1.890625 C 20.925781 -0.222656 17.707031 0.609375 13.5625 0.609375 C 9.164062 0.609375 5.742188 -0.0859375 3.296875 -1.484375 L 3.296875 -6.125 C 4.878906 -5.320312 6.582031 -4.6875 8.40625 -4.21875 C 10.226562 -3.757812 11.984375 -3.53125 13.671875 -3.53125 C 16.296875 -3.53125 18.3125 -3.945312 19.71875 -4.78125 C 21.125 -5.625 21.828125 -6.898438 21.828125 -8.609375 C 21.828125 -9.890625 21.269531 -10.988281 20.15625 -11.90625 C 19.039062 -12.820312 16.863281 -13.90625 13.625 -15.15625 C 10.539062 -16.300781 8.347656 -17.300781 7.046875 -18.15625 C 5.753906 -19.019531 4.789062 -19.992188 4.15625 -21.078125 C 3.519531 -22.160156 3.203125 -23.457031 3.203125 -24.96875 C 3.203125 -27.664062 4.296875 -29.796875 6.484375 -31.359375 C 8.679688 -32.921875 11.691406 -33.703125 15.515625 -33.703125 C 19.078125 -33.703125 22.5625 -32.976562 25.96875 -31.53125 L 24.1875 -27.453125 C 20.863281 -28.816406 17.851562 -29.5 15.15625 -29.5 C 12.78125 -29.5 10.988281 -29.125 9.78125 -28.375 C 8.570312 -27.632812 7.96875 -26.613281 7.96875 -25.3125 C 7.96875 -24.414062 8.191406 -23.65625 8.640625 -23.03125 C 9.097656 -22.414062 9.828125 -21.820312 10.828125 -21.25 C 11.835938 -20.6875 13.773438 -19.875 16.640625 -18.8125 C 20.566406 -17.382812 23.21875 -15.945312 24.59375 -14.5 C 25.976562 -13.050781 26.671875 -11.226562 26.671875 -9.03125 Z M 26.671875 -9.03125 "/></g></g></g><g fill="#df901a" fill-opacity="1"><g transform="translate(173.801742, 280.600597)"><g><path d="M 10.03125 -33.09375 L 10.03125 -11.625 C 10.03125 -8.925781 10.640625 -6.910156 11.859375 -5.578125 C 13.085938 -4.253906 15.015625 -3.59375 17.640625 -3.59375 C 21.097656 -3.59375 23.625 -4.535156 25.21875 -6.421875 C 26.820312 -8.316406 27.625 -11.410156 27.625 -15.703125 L 27.625 -33.09375 L 32.640625 -33.09375 L 32.640625 0 L 28.5 0 L 27.78125 -4.4375 L 27.515625 -4.4375 C 26.484375 -2.8125 25.054688 -1.5625 23.234375 -0.6875 C 21.410156 0.175781 19.332031 0.609375 17 0.609375 C 12.976562 0.609375 9.960938 -0.347656 7.953125 -2.265625 C 5.953125 -4.179688 4.953125 -7.238281 4.953125 -11.4375 L 4.953125 -33.09375 Z M 10.03125 -33.09375 "/></g></g></g><g fill="#df901a" fill-opacity="1"><g transform="translate(211.760566, 280.600597)"><g><path d="M 25.671875 0 L 24.671875 -4.703125 L 24.421875 -4.703125 C 22.773438 -2.628906 21.128906 -1.222656 19.484375 -0.484375 C 17.847656 0.242188 15.800781 0.609375 13.34375 0.609375 C 10.0625 0.609375 7.488281 -0.234375 5.625 -1.921875 C 3.769531 -3.617188 2.84375 -6.03125 2.84375 -9.15625 C 2.84375 -15.832031 8.1875 -19.332031 18.875 -19.65625 L 24.484375 -19.84375 L 24.484375 -21.890625 C 24.484375 -24.484375 23.925781 -26.398438 22.8125 -27.640625 C 21.695312 -28.878906 19.910156 -29.5 17.453125 -29.5 C 14.691406 -29.5 11.570312 -28.65625 8.09375 -26.96875 L 6.546875 -30.796875 C 8.179688 -31.679688 9.96875 -32.375 11.90625 -32.875 C 13.851562 -33.382812 15.800781 -33.640625 17.75 -33.640625 C 21.695312 -33.640625 24.617188 -32.765625 26.515625 -31.015625 C 28.421875 -29.265625 29.375 -26.457031 29.375 -22.59375 L 29.375 0 Z M 14.34375 -3.53125 C 17.46875 -3.53125 19.921875 -4.382812 21.703125 -6.09375 C 23.484375 -7.8125 24.375 -10.207031 24.375 -13.28125 L 24.375 -16.28125 L 19.359375 -16.0625 C 15.367188 -15.925781 12.492188 -15.304688 10.734375 -14.203125 C 8.972656 -13.109375 8.09375 -11.40625 8.09375 -9.09375 C 8.09375 -7.28125 8.640625 -5.898438 9.734375 -4.953125 C 10.835938 -4.003906 12.375 -3.53125 14.34375 -3.53125 Z M 14.34375 -3.53125 "/></g></g></g><g fill="#df901a" fill-opacity="1"><g transform="translate(246.156033, 280.600597)"><g><path d="M 10.328125 0 L 5.3125 0 L 5.3125 -46.984375 L 10.328125 -46.984375 Z M 10.328125 0 "/></g></g></g><g fill="#df901a" fill-opacity="1"><g transform="translate(261.798571, 280.600597)"><g><path d="M 10.328125 0 L 5.3125 0 L 5.3125 -33.09375 L 10.328125 -33.09375 Z M 4.890625 -42.0625 C 4.890625 -43.207031 5.171875 -44.046875 5.734375 -44.578125 C 6.296875 -45.117188 7 -45.390625 7.84375 -45.390625 C 8.65625 -45.390625 9.351562 -45.113281 9.9375 -44.5625 C 10.519531 -44.019531 10.8125 -43.1875 10.8125 -42.0625 C 10.8125 -40.9375 10.519531 -40.097656 9.9375 -39.546875 C 9.351562 -38.992188 8.65625 -38.71875 7.84375 -38.71875 C 7 -38.71875 6.296875 -38.992188 5.734375 -39.546875 C 5.171875 -40.097656 4.890625 -40.9375 4.890625 -42.0625 Z M 4.890625 -42.0625 "/></g></g></g><g fill="#df901a" fill-opacity="1"><g transform="translate(277.441109, 280.600597)"><g><path d="M 26.484375 0 L 2.46875 0 L 2.46875 -3.40625 L 20.53125 -29.203125 L 3.59375 -29.203125 L 3.59375 -33.09375 L 26.03125 -33.09375 L 26.03125 -29.203125 L 8.21875 -3.890625 L 26.484375 -3.890625 Z M 26.484375 0 "/></g></g></g><g fill="#df901a" fill-opacity="1"><g transform="translate(306.370746, 280.600597)"><g><path d="M 19.296875 0.609375 C 14.398438 0.609375 10.535156 -0.878906 7.703125 -3.859375 C 4.878906 -6.835938 3.46875 -10.976562 3.46875 -16.28125 C 3.46875 -21.613281 4.78125 -25.847656 7.40625 -28.984375 C 10.039062 -32.128906 13.570312 -33.703125 18 -33.703125 C 22.144531 -33.703125 25.425781 -32.335938 27.84375 -29.609375 C 30.257812 -26.878906 31.46875 -23.28125 31.46875 -18.8125 L 31.46875 -15.640625 L 8.671875 -15.640625 C 8.765625 -11.753906 9.742188 -8.804688 11.609375 -6.796875 C 13.472656 -4.785156 16.097656 -3.78125 19.484375 -3.78125 C 23.046875 -3.78125 26.566406 -4.523438 30.046875 -6.015625 L 30.046875 -1.546875 C 28.273438 -0.773438 26.597656 -0.222656 25.015625 0.109375 C 23.429688 0.441406 21.523438 0.609375 19.296875 0.609375 Z M 17.9375 -29.5 C 15.28125 -29.5 13.160156 -28.632812 11.578125 -26.90625 C 9.992188 -25.175781 9.0625 -22.78125 8.78125 -19.71875 L 26.09375 -19.71875 C 26.09375 -22.875 25.382812 -25.289062 23.96875 -26.96875 C 22.5625 -28.65625 20.550781 -29.5 17.9375 -29.5 Z M 17.9375 -29.5 "/></g></g></g><g fill="#df901a" fill-opacity="1"><g transform="translate(341.068192, 280.600597)"><g><path d="M 20.40625 -33.703125 C 21.882812 -33.703125 23.207031 -33.582031 24.375 -33.34375 L 23.671875 -28.6875 C 22.304688 -28.988281 21.097656 -29.140625 20.046875 -29.140625 C 17.367188 -29.140625 15.078125 -28.050781 13.171875 -25.875 C 11.273438 -23.707031 10.328125 -21 10.328125 -17.75 L 10.328125 0 L 5.3125 0 L 5.3125 -33.09375 L 9.453125 -33.09375 L 10.03125 -26.96875 L 10.265625 -26.96875 C 11.492188 -29.125 12.972656 -30.785156 14.703125 -31.953125 C 16.429688 -33.117188 18.332031 -33.703125 20.40625 -33.703125 Z M 20.40625 -33.703125 "/></g></g></g></svg>